<?xml version="1.0" encoding="utf-8"?>
<!-- Generator: Adobe Illustrator 27.5.0, SVG Export Plug-In . SVG Version: 6.00 Build 0)  -->
<svg version="1.1" xmlns="http://www.w3.org/2000/svg" xmlns:xlink="http://www.w3.org/1999/xlink" x="0px" y="0px"
	 viewBox="0 0 500 500" style="enable-background:new 0 0 500 500;" xml:space="preserve">
<g id="BACKGROUND">
	<rect x="0.002" style="fill:#FFFFFF;" width="500" height="500"/>
</g>
<g id="OBJECTS">
	<g>
		<ellipse style="opacity:0.15;fill:#2C2A40;" cx="134.272" cy="235.471" rx="104.606" ry="5.013"/>
		<g>
			<g>
				<g>
					<g>
						<g>
							<rect x="128.784" y="158.43" style="fill:#63676D;" width="3.422" height="76.259"/>
						</g>
						<rect x="128.784" y="158.43" style="fill:#404348;" width="3.422" height="8.852"/>
					</g>
					<g>
						<g>
							<polygon style="fill:#63676D;" points="128.047,157.793 127.75,158.43 123.614,167.282 92.126,234.689 88.349,234.689 
								119.837,167.282 123.972,158.43 124.946,156.345 							"/>
						</g>
						<polygon style="fill:#404348;" points="127.75,158.43 123.614,167.282 119.837,167.282 123.972,158.43 						"/>
					</g>
					<g>
						<g>
							<polygon style="fill:#63676D;" points="172.115,234.689 168.338,234.689 136.85,167.282 132.714,158.43 132.417,157.793 
								135.518,156.345 136.492,158.43 140.627,167.282 							"/>
						</g>
						<polygon style="fill:#404348;" points="140.627,167.282 136.85,167.282 132.714,158.43 136.492,158.43 						"/>
					</g>
				</g>
				<rect x="86.14" y="70.246" style="fill:#2C2A40;" width="88.183" height="88.183"/>
				
					<rect x="88.773" y="72.878" transform="matrix(-1.836970e-16 1 -1 -1.836970e-16 244.5698 -15.8944)" style="fill:#FFFFFF;" width="82.919" height="82.919"/>
				<g>
					<path style="fill:#FFCE00;" d="M119.985,91.173c-0.366,0-0.732,0.008-1.092,0.029l1.092,23.014v23.044
						c12.727,0,23.043-10.316,23.043-23.044C143.028,101.49,132.712,91.173,119.985,91.173z"/>
					<path style="fill:#FF2956;" d="M116.812,87.569c-6.886,0.319-12.977,3.659-16.986,8.726c-1.29,1.629-2.364,3.438-3.18,5.383
						l21.259,8.905L116.812,87.569z"/>
					<path style="fill:#00B3D8;" d="M98.726,105.312c-1.15,2.74-1.785,5.749-1.785,8.905c0,12.727,10.316,23.044,23.044,23.044
						v-23.044L98.726,105.312z"/>
				</g>
				<g>
					<g>
						<rect x="149.777" y="104.151" style="fill:#FF2956;" width="3.164" height="3.164"/>
						<rect x="155.042" y="105.217" style="fill:#63676D;" width="11.407" height="0.793"/>
					</g>
					<g>
						<rect x="149.777" y="110.267" style="fill:#00B3D8;" width="3.164" height="3.164"/>
						<rect x="155.042" y="111.453" style="fill:#63676D;" width="11.407" height="0.793"/>
					</g>
					<g>
						<rect x="149.777" y="115.904" style="fill:#FFCE00;" width="3.164" height="3.164"/>
						<rect x="155.042" y="117.09" style="fill:#63676D;" width="11.407" height="0.793"/>
					</g>
				</g>
			</g>
			<g>
				<g>
					<path style="fill:#82423C;" d="M220.673,189.072h-37.577v-40.387c0-6.811,5.521-12.332,12.332-12.332h12.913
						c6.811,0,12.332,5.521,12.332,12.332V189.072z"/>
					<path style="fill:#82423C;" d="M222.8,194.775h-42.096c-1.428,0-2.586-1.158-2.586-2.586v-0.532
						c0-1.428,1.158-2.586,2.586-2.586H222.8c1.575,0,2.851,1.277,2.851,2.851l0,0C225.652,193.498,224.375,194.775,222.8,194.775z"
						/>
					<g>
						<rect x="183.445" y="192.957" style="fill:#82423C;" width="2.868" height="42.911"/>
						<rect x="183.445" y="194.775" style="fill:#5C1A31;" width="2.868" height="5.978"/>
					</g>
					<g>
						<rect x="218.071" y="192.957" style="fill:#82423C;" width="2.868" height="42.911"/>
						<rect x="218.071" y="194.775" style="fill:#5C1A31;" width="2.868" height="5.978"/>
					</g>
				</g>
				<path style="fill:#2C2A40;" d="M213.699,176.456c0,0,0.55,7.471-1.704,9.622c-2.254,2.151-15.981,2.254-20.591,0.819
					c-4.61-1.434-3.793-10.82-3.793-10.82L213.699,176.456z"/>
				<g>
					<path style="fill:#6230BB;" d="M213.866,176.315l1.489-43.318c0,0-3.807-1.014-8.607-1.539
						c-0.307-0.033-0.617-0.064-0.932-0.092c-2.999-0.279-6.3-0.336-9.265,0.168l-0.449,0.076l-9.529,1.623l1.01,43.082H213.866z"/>
					<path style="fill:#6230BB;" d="M195.862,176.315h9.046c-0.019-9.852,0.26-26.366,0.907-44.949
						c-2.999-0.279-6.3-0.336-9.265,0.168l-0.449,0.076C196.201,137.755,196.515,160.916,195.862,176.315z"/>
					<polygon style="fill:#FFB000;" points="200.413,137.259 197.384,162.118 200.849,167.719 203.93,161.709 201.292,137.297 					
						"/>
					<path style="fill:#FFCE00;" d="M197.384,135.115l2.541,2.733c0.548,0.589,1.485,0.576,2.015-0.029l2.374-2.704l-3.631-2.85
						L197.384,135.115z"/>
				</g>
				<g>
					<g>
						<g>
							<path style="fill:#ECB28A;" d="M204.556,124.97v6.493c-0.119,0.052-0.236,0.102-0.355,0.148
								c-2.289,0.914-4.568,0.875-6.834-0.148v-6.493H204.556z"/>
							<path style="fill:#E8967C;" d="M204.556,126.543v4.92c-0.119,0.052-0.236,0.102-0.355,0.148
								c-2.68-0.286-5.206-1.647-6.834-2.722v-2.346H204.556z"/>
						</g>
						<path style="fill:#E8967C;" d="M192.895,114.365c0,0-0.791-1.861-2.373-2.233c-1.582-0.372-1.535,3.582-0.558,6.467
							c0.977,2.885,3.443,1.768,3.443,1.768L192.895,114.365z"/>
						<path style="fill:#E8967C;" d="M209.001,114.365c0,0,0.791-1.861,2.373-2.233c1.582-0.372,1.535,3.582,0.558,6.467
							c-0.977,2.885-3.443,1.768-3.443,1.768L209.001,114.365z"/>
						<path style="fill:#ECB28A;" d="M200.933,127.869L200.933,127.869c-4.799,0-8.689-5.154-8.689-9.694v-10.266h17.378v10.266
							C209.622,122.715,205.731,127.869,200.933,127.869z"/>
						<path style="fill:#2C2A40;" d="M210.143,114.366l-1.185-0.026c0,0,0.328,4.757-1.763,8.239
							c-0.945-0.802-3.328-2.479-6.285-1.999c-2.977-0.461-5.324,1.227-6.256,2.038c-1.972-3.515-1.672-8.371-1.672-8.371
							l-1.188,0.179c0,0-2.672,15.14,9.145,15.214C212.758,129.714,210.143,114.366,210.143,114.366z M202.292,126.032
							c-0.233-0.438-0.726-1.199-1.33-1.199c-0.627,0-1.255,0.821-1.541,1.248c-1.757-0.276-3.039-1.142-3.971-2.286
							c2.937,1.304,5.467-1.114,5.467-1.114s2.508,2.337,5.381,1.129C205.34,124.885,204.045,125.712,202.292,126.032z"/>
						<path style="fill:#2C2A40;" d="M192.244,115.377c0,0-2.97-4.467-0.903-7.468c0,0-1.268-2.563,0-5.006
							c1.268-2.443,6.626-5.253,14.094-3.787c7.467,1.466,6.056,6.979,5.122,8.514c0,0,1.857,3.42-0.934,7.747
							c0,0-1.636-2.233-1.132-6.979c0,0-8.313,2.373-15.082-0.489C193.407,107.909,194.337,113.422,192.244,115.377z"/>
					</g>
					<path style="fill:#705CCE;" d="M200.683,132.265l-4.517,3.902l-0.5-4.425c-0.071-0.627,0.216-1.24,0.742-1.588l0.976-0.646
						C197.384,129.508,198.017,131.642,200.683,132.265z"/>
					<path style="fill:#705CCE;" d="M200.683,132.265l4.972,3.902l0.146-5.059c0.009-0.326-0.127-0.638-0.372-0.853l-0.856-0.748
						C204.572,129.508,203.349,131.642,200.683,132.265z"/>
				</g>
				<g>
					<path style="fill:#2C2A40;" d="M200.965,185.97c-0.107-1.055,0.078-2.119,0.269-3.162c0.679-3.711,2.855-11.262,9.256-10.374
						c8.448,1.171,5.798,17.231,5.798,17.231l-4.971,39.48h-6.096C205.221,229.144,203.026,206.197,200.965,185.97z"/>
					<g>
						<path style="fill:#82423C;" d="M216.091,235.869h-11.153c-0.191-1.406-0.199-2.83-0.024-4.237l0.311-2.487h6.092l0.006,0.027
							l0.367,1.576C215.752,233.137,216.091,235.869,216.091,235.869z"/>
						<path style="fill:#5C1A31;" d="M211.69,230.746c0,0-4.043,0-5.398,2.561c0,0,0.404-3.145,5.03-4.137L211.69,230.746z"/>
					</g>
				</g>
				<g>
					<path style="fill:#2C2A40;" d="M199.163,185.97c0.107-1.055-0.078-2.119-0.269-3.162c-0.679-3.711-2.855-11.262-9.257-10.374
						c-8.448,1.171-5.798,17.231-5.798,17.231l4.971,39.48h6.096C194.906,229.144,197.102,206.197,199.163,185.97z"/>
					<g>
						<path style="fill:#82423C;" d="M184.037,235.869h11.153c0.191-1.406,0.199-2.83,0.024-4.237l-0.311-2.487h-6.092l-0.006,0.027
							l-0.368,1.576C184.376,233.137,184.037,235.869,184.037,235.869z"/>
						<path style="fill:#5C1A31;" d="M188.437,230.746c0,0,4.043,0,5.398,2.561c0,0-0.404-3.145-5.03-4.137L188.437,230.746z"/>
					</g>
				</g>
				<g>
					<path style="fill:#6230BB;" d="M215.355,132.996c0,0,6.822,9.689,9.417,17.885c0,0-3.55,4.212-5.941,5.111l-4.504-9.482
						C214.327,146.51,212.358,137.785,215.355,132.996z"/>
					<path style="fill:#6230BB;" d="M218.831,155.992c0,0-5.739,2.685-11.811,12.1l0.632,3.034l16.436-10.365
						c1.592-1.379,2.441-3.603,1.929-5.646l-1.245-4.234C224.772,150.881,220.266,152.566,218.831,155.992z"/>
				</g>
				<g>
					<g>
						<path style="fill:#FFFFFF;" d="M212.649,153.951l-0.129,0.981l-2.465,18.864c-0.104,0.789-0.776,1.378-1.573,1.378h-14.91
							c-0.797,0-1.469-0.589-1.573-1.378l-2.465-18.864l-0.129-0.981c-0.124-0.948,0.614-1.79,1.57-1.79h20.1
							C212.034,152.161,212.773,153.003,212.649,153.951z"/>
						<path style="fill:#EDEDED;" d="M212.52,154.932l-2.465,18.864c-0.104,0.789-0.776,1.378-1.573,1.378h-14.91
							c-0.797,0-1.469-0.589-1.573-1.378l-2.465-18.864c0.243-0.549,0.791-0.938,1.441-0.938h20.1
							C211.729,153.994,212.277,154.384,212.52,154.932z"/>
					</g>
					<path style="opacity:0.5;fill:#383851;" d="M201.895,167.762h-1.735c-0.912,0-1.657-0.746-1.657-1.657v-1.735
						c0-0.912,0.746-1.657,1.657-1.657h1.735c0.911,0,1.657,0.746,1.657,1.657v1.735
						C203.552,167.017,202.807,167.762,201.895,167.762z"/>
				</g>
				<g>
					<g>
						<g>
							<path style="fill:#6230BB;" d="M186.573,133.226c0,0-6.822,9.689-9.417,17.885c0,0,3.55,4.212,5.941,5.111l4.504-9.482
								C187.601,146.74,189.57,138.015,186.573,133.226z"/>
						</g>
						<g>
							<path style="fill:#6230BB;" d="M183.096,156.222c0,0,2.744,1.952,8.459,9.469l-1.77,5.225l-11.947-9.925
								c-1.592-1.379-2.441-3.603-1.929-5.646l1.245-4.234C177.156,151.111,181.661,152.796,183.096,156.222z"/>
						</g>
						<path style="fill:#ECB28A;" d="M189.562,163.463c0,0-0.47-2.515,0.759-2.515l0.362,2.515c0,0,2.637-0.655,3.406,0.779
							c0.768,1.434,0.359,6.659-0.871,7.427c-1.229,0.768-5.122-0.141-5.532-2.196C187.276,167.418,188.409,164.476,189.562,163.463
							z"/>
					</g>
				</g>
			</g>
			<g>
				<g>
					<g>
						<path style="fill:#2C2A40;" d="M49.343,156.541l-3.159,36.811h10.5c2.958-10.576,4.322-21.92,4.542-33.601L49.343,156.541z"/>
						<path style="fill:#2C2A40;" d="M46.184,193.352l3.159,35.104h5.19c0,0,0.137-5.293,0.956-10.722
							c0.819-5.43,2.288-16.444,1.093-25.186C56.582,192.548,51.733,191.542,46.184,193.352z"/>
					</g>
					<g>
						<path style="fill:#2C2A40;" d="M75.554,156.59c1.099,14.23,1.506,23.36,1.537,36.301l-10.333,0.46
							c-2.958-10.576-2.685-21.92-2.906-33.601L75.554,156.59z"/>
						<path style="fill:#2C2A40;" d="M77.091,192.892l-1.355,35.564h-6.146c0,0-0.092-4.01-0.717-10.347
							c-0.539-5.464-2.056-13.199-2.114-24.757C66.758,193.352,71.542,191.082,77.091,192.892z"/>
					</g>
					<path style="fill:#2C2A40;" d="M48.544,165.846c0,0,14.284,5.719,27.671,0l-0.604-10.936l-26.269,1.631L48.544,165.846z"/>
				</g>
				<g>
					<path style="fill:#2C2A40;" d="M77.09,111.917l-1.61,46.849c-3.149,1.172-6.089,1.856-8.775,2.201
						c-3.641,0.467-6.817,0.311-9.419-0.094c-5.003-0.779-7.894-2.485-7.894-2.485l-1.084-46.234l9.529-1.623l0.449-0.076
						c2.965-0.504,6.265-0.447,9.265-0.168c0.315,0.029,0.625,0.059,0.932,0.092C73.284,110.903,77.09,111.917,77.09,111.917z"/>
					<path style="fill:#EDEDED;" d="M66.705,160.967c-3.641,0.467-6.817,0.311-9.419-0.094c1.051-14.623,0.664-43.386,0.551-50.342
						l0.449-0.076c2.965-0.504,6.265-0.447,9.265-0.168C66.754,133.186,66.514,152.945,66.705,160.967z"/>
					<polygon style="fill:#A0BBE7;" points="62.148,116.179 59.119,141.038 62.585,146.638 65.665,140.628 63.028,116.217 					"/>
					<path style="fill:#BFD7F7;" d="M59.119,114.035l2.541,2.733c0.548,0.589,1.485,0.576,2.015-0.029l2.374-2.705l-3.631-2.85
						L59.119,114.035z"/>
				</g>
				<g>
					<path style="fill:#82423C;" d="M80.553,235.18H69.301c-0.193-1.406-0.201-2.829-0.025-4.237l0.313-2.487h6.147l0.006,0.027
						l0.371,1.576C80.211,232.449,80.553,235.18,80.553,235.18z"/>
					<path style="fill:#5C1A31;" d="M76.113,230.058c0,0-4.079,0-5.446,2.561c0,0,0.408-3.145,5.075-4.137L76.113,230.058z"/>
				</g>
				<g>
					<path style="fill:#82423C;" d="M55.079,235.18H37.05c4.028-3.688,11.404-5.122,11.404-5.122l0.568-1.022l0.322-0.58h5.19
						L55.079,235.18z"/>
					<path style="fill:#5C1A31;" d="M51.357,231.39c-0.99-1.367-2.903-1.332-2.903-1.332l0.568-1.022
						C51.013,229.696,51.357,231.39,51.357,231.39z"/>
				</g>
				<g>
					<g>
						<g>
							<path style="fill:#ECB28A;" d="M66.307,103.89v6.493c-0.119,0.052-0.236,0.102-0.354,0.148
								c-2.289,0.914-4.568,0.875-6.834-0.148v-6.493H66.307z"/>
							<path style="fill:#E8967C;" d="M66.307,105.463v4.92c-0.119,0.052-0.236,0.102-0.354,0.148
								c-2.68-0.286-5.206-1.647-6.834-2.722v-2.346H66.307z"/>
						</g>
						<path style="fill:#E8967C;" d="M54.646,93.285c0,0-0.791-1.861-2.373-2.233c-1.582-0.372-1.535,3.582-0.558,6.467
							c0.977,2.885,3.443,1.768,3.443,1.768L54.646,93.285z"/>
						<path style="fill:#E8967C;" d="M70.752,93.285c0,0,0.791-1.861,2.373-2.233c1.582-0.372,1.535,3.582,0.558,6.467
							c-0.977,2.885-3.443,1.768-3.443,1.768L70.752,93.285z"/>
						<path style="fill:#ECB28A;" d="M62.684,106.789L62.684,106.789c-4.799,0-8.689-5.154-8.689-9.694V86.829h17.378v10.266
							C71.373,101.634,67.482,106.789,62.684,106.789z"/>
						<path style="fill:#2C2A40;" d="M71.894,93.286l-1.185-0.026c0,0,0.328,4.757-1.763,8.239
							c-0.945-0.803-3.328-2.479-6.285-1.999c-2.977-0.461-5.324,1.227-6.256,2.038c-1.972-3.515-1.672-8.371-1.672-8.371
							l-1.188,0.179c0,0-2.671,15.14,9.145,15.214C74.509,108.634,71.894,93.286,71.894,93.286z M64.043,104.952
							c-0.233-0.438-0.726-1.199-1.33-1.199c-0.627,0-1.255,0.821-1.541,1.248c-1.757-0.276-3.039-1.142-3.971-2.286
							c2.937,1.304,5.467-1.114,5.467-1.114s2.508,2.337,5.381,1.129C67.091,103.804,65.796,104.632,64.043,104.952z"/>
						<path style="fill:#2C2A40;" d="M53.995,94.296c0,0-2.97-4.467-0.903-7.468c0,0-1.268-2.563,0-5.006
							c1.268-2.443,6.626-5.253,14.094-3.787c7.468,1.465,6.056,6.979,5.122,8.514c0,0,1.857,3.42-0.934,7.747
							c0,0-1.636-2.233-1.132-6.979c0,0-8.313,2.373-15.082-0.489C55.158,86.829,56.089,92.342,53.995,94.296z"/>
					</g>
					<g>
						<path style="fill:#FFFFFF;" d="M62.419,111.185l-4.517,3.902l-0.5-4.425c-0.071-0.627,0.216-1.24,0.741-1.588l0.976-0.646
							C59.119,108.427,59.752,110.562,62.419,111.185z"/>
						<path style="fill:#FFFFFF;" d="M62.419,111.185l4.972,3.902l0.146-5.059c0.009-0.326-0.127-0.638-0.372-0.853l-0.856-0.748
							C66.308,108.427,65.085,110.562,62.419,111.185z"/>
					</g>
				</g>
				<g>
					<path style="fill:#2C2A40;" d="M77.09,111.917c0,0,5.654,11.165,13.535,16.166l-5.564,5.204c0,0-14.129-6.899-18.177-19.258
						C66.885,114.029,73.982,112.218,77.09,111.917z"/>
					<path style="fill:#2C2A40;" d="M85.062,133.286c0,0,1.587-5.953,3.338-6.816c0,0,5.106-3.459,9.57-5.482
						c2.924-1.326,5.241-2.566,6.643-3.357c0.965-0.545,1.498-0.875,1.498-0.875l3.103,3.795c0,0-0.474,0.339-1.294,0.909
						C103.591,124.468,89.634,133.867,85.062,133.286z"/>
					<path style="fill:#EDEDED;" d="M107.92,121.46l-3.306-3.829c0.965-0.545,1.498-0.875,1.498-0.875l3.103,3.795
						C109.214,120.551,108.74,120.891,107.92,121.46z"/>
				</g>
				<g>
					<path style="fill:#2C2A40;" d="M48.308,112.152L37.38,129.526l5.035,6.007c0,0,10.945-9.661,11.58-14.335L48.308,112.152z"/>
					<path style="fill:#2C2A40;" d="M49.342,156.542l-3.073,2.516l-1.178-2.327l-9.914-19.579c-0.625-0.897-0.699-2.069-0.193-3.039
						l2.395-4.587c0,0,4.557,1.291,5.036,6.007c0,0,1.211,3.233,3.272,9.945c0.69,2.241,1.479,4.651,2.149,6.646
						C48.686,154.669,49.342,156.542,49.342,156.542z"/>
					<path style="fill:#EDEDED;" d="M49.342,156.542l-3.073,2.516l-1.178-2.327c0.758-2.043,2.084-3.803,2.745-4.606
						C48.686,154.669,49.342,156.542,49.342,156.542z"/>
					<path style="fill:#ECB28A;" d="M48.145,153.047c0,0-0.168-2.576,1.061-2.576l0.06,2.576c0,0,2.637-0.655,3.406,0.779
						c0.768,1.434,0.358,6.659-0.871,7.427c-1.229,0.768-5.122-0.141-5.532-2.196C45.859,157.002,46.992,154.061,48.145,153.047z"/>
				</g>
				<path style="fill:#ECB28A;" d="M106.111,116.756c0,0-0.094-5.001,1.423-5.571c1.517-0.57,3.118,2.127,3.118,2.127
					s3.624-1.011,4.635,0.253c1.011,1.264,1.506,7.399-6.074,6.986L106.111,116.756z"/>
				<g>
					<path style="fill:#2C2A40;" d="M124.072,97.783c-0.162-0.133-0.401-0.11-0.534,0.051l-12.867,15.603
						c0.116,0.323,0.168,0.668,0.154,1.005l13.298-16.126C124.257,98.155,124.234,97.916,124.072,97.783z"/>
				</g>
			</g>
		</g>
	</g>
	<g>
		<ellipse style="opacity:0.15;fill:#2C2A40;" cx="367.908" cy="235.471" rx="104.606" ry="5.013"/>
		<g>
			<g>
				<path style="fill:#6230BB;" d="M425.048,173.316h-9.594c-1.305,0-2.461-0.84-2.864-2.081l-4.069-12.523
					c-0.166-0.512,0.191-1.045,0.728-1.086c7.408-0.574,14.743-0.575,22.006-0.002c0.536,0.042,0.893,0.574,0.727,1.086
					l-4.069,12.525C427.509,172.475,426.352,173.316,425.048,173.316z"/>
				<path style="fill:#5C1A31;" d="M431.129,158.534c0,0.333-4.841,0.603-10.813,0.603c-5.972,0-10.813-0.27-10.813-0.603
					c0-0.333,4.841-0.603,10.813-0.603C426.288,157.931,431.129,158.201,431.129,158.534z"/>
				<g>
					<g>
						<path style="fill:#107B85;" d="M420.704,149.637c0,0-0.106-6.994-8.911-8.08C411.793,141.557,412.103,151.472,420.704,149.637
							z"/>
					</g>
					<g>
						<path style="fill:#079798;" d="M419.744,135.605v22.856c0.367,0.103,0.71,0.102,1.014,0v-22.856
							c0-0.28-0.227-0.507-0.507-0.507l0,0C419.971,135.098,419.744,135.325,419.744,135.605z"/>
					</g>
					<g>
						<path style="fill:#079798;" d="M420.117,141.774c0,0,5.175,4.903,11.095-4.648
							C431.212,137.126,420.959,135.073,420.117,141.774z"/>
					</g>
					<g>
						<path style="fill:#079798;" d="M420.474,149.512c0,0,5.78,4.173,10.38-6.079C430.854,143.433,420.42,142.758,420.474,149.512z
							"/>
					</g>
					<g>
						<path style="fill:#079798;" d="M420.251,150.398c0,0-0.204-7.126-11.139-4.542
							C409.112,145.856,414.923,154.548,420.251,150.398z"/>
					</g>
					<g>
						<path style="fill:#079798;" d="M420.776,141.414c0,0-0.029-7.129-11.024-4.814C409.752,136.6,415.349,145.432,420.776,141.414
							z"/>
					</g>
					<g>
						<path style="fill:#079798;" d="M420.118,136.83c0,0,6.642-2.589,0.53-12.018C420.647,124.812,414.417,133.209,420.118,136.83z
							"/>
					</g>
				</g>
			</g>
			<g>
				<rect x="380.89" y="168.514" style="fill:#2C2A40;" width="22.755" height="4.802"/>
				<path style="fill:#383851;" d="M389.823,168.514h-7.754v-0.898c0-0.947,0.768-1.715,1.715-1.715h4.324
					c0.947,0,1.715,0.768,1.715,1.715V168.514z"/>
				<path style="fill:#383851;" d="M397.519,168.514h-1.138v-0.395c0-0.206,0.167-0.373,0.373-0.373h0.391
					c0.206,0,0.373,0.167,0.373,0.373V168.514z"/>
				<path style="fill:#383851;" d="M399.352,168.514h-1.138v-0.395c0-0.206,0.167-0.373,0.373-0.373h0.391
					c0.206,0,0.373,0.167,0.373,0.373V168.514z"/>
				<path style="fill:#383851;" d="M401.248,168.514h-1.138v-0.395c0-0.206,0.167-0.373,0.373-0.373h0.391
					c0.206,0,0.373,0.167,0.373,0.373V168.514z"/>
				<path style="fill:#383851;" d="M392.557,168.514h-1.138v-0.395c0-0.206,0.167-0.373,0.373-0.373h0.391
					c0.206,0,0.373,0.167,0.373,0.373V168.514z"/>
			</g>
			<g>
				<path style="fill:#5C1A31;" d="M322.213,178.1h-11.912c-6.257,0-11.376-5.119-11.376-11.376v-22.996
					c0-6.257,5.119-11.376,11.376-11.376h11.912c6.257,0,11.376,5.119,11.376,11.376v22.996
					C333.589,172.981,328.47,178.1,322.213,178.1z"/>
				<path style="fill:#2C2A40;" d="M332.932,136.224c0.269-5.825-3.188-13.729-3.583-19.681c-0.528-7.956-6.15-11.436-6.15-11.436
					l-6.757-0.422l-0.053-0.004l-0.054,0.004l-6.757,0.422c0,0-5.622,3.48-6.15,11.436c-0.395,5.951-3.852,13.855-3.583,19.681
					C310.897,141.06,321.926,141.081,332.932,136.224z"/>
				<g>
					<path style="fill:#FF6160;" d="M325.487,152.812l5.239,19.87c0,0-4.694,2.176-11.926,2.551
						c-0.684,0.037-1.391,0.055-2.119,0.055c-0.701,0-1.381-0.014-2.043-0.041c-7.302-0.293-12.189-2.053-12.189-2.053l5.763-20.486
						l-7.103-15.995l11.736-4.505h7.189l11.409,4.177L325.487,152.812z"/>
					<circle style="fill:#E93552;" cx="316.719" cy="151.166" r="0.933"/>
					<path style="fill:#E93552;" d="M317.652,156.159c0,0.515-0.418,0.933-0.933,0.933c-0.515,0-0.933-0.418-0.933-0.933
						c0-0.515,0.418-0.933,0.933-0.933C317.234,155.226,317.652,155.644,317.652,156.159z"/>
					<polygon style="fill:#E93552;" points="312.847,132.206 308.995,133.685 310.261,139.443 312.846,139.443 310.921,141.66 
						312.847,146.987 316.441,146.68 					"/>
					<polygon style="fill:#E93552;" points="320.036,132.206 323.888,133.685 322.622,139.443 320.037,139.443 321.962,141.66 
						320.036,146.987 316.441,146.68 					"/>
					
						<rect x="320.472" y="163.327" transform="matrix(0.9366 -0.3505 0.3505 0.9366 -36.9742 123.784)" style="fill:#E93552;" width="6.06" height="1.434"/>
					
						<rect x="306.727" y="163.327" transform="matrix(-0.9366 -0.3505 0.3505 -0.9366 542.3728 426.2448)" style="fill:#E93552;" width="6.06" height="1.434"/>
					<polygon style="fill:#FFFFFF;" points="320.035,132.207 316.441,146.68 312.846,132.207 					"/>
					<path style="fill:#FFFFFF;" d="M318.8,175.233c-0.684,0.037-1.391,0.055-2.119,0.055c-0.701,0-1.381-0.014-2.043-0.041
						l2.043-13.508L318.8,175.233z"/>
				</g>
				<g>
					<g>
						<g>
							<path style="fill:#FF6160;" d="M301.11,136.712c0,0-5.743,9.515-8.338,17.71c0,0,3.55,4.212,5.941,5.111l6.795-14.843
								C305.508,144.691,304.107,141.501,301.11,136.712z"/>
						</g>
						<g>
							<path style="fill:#FF6160;" d="M303.65,168.928c-4.702-7.372-4.937-9.394-4.937-9.394c-1.435-3.426-5.941-5.111-5.941-5.111
								l-1.245,4.234c-0.512,2.043,0.337,4.267,1.929,5.646l6.359,6.065L303.65,168.928z"/>
						</g>
						<path style="fill:#ECB28A;" d="M299.185,170.712c0,0,0.943-2.633,3.004-2.675c2.06-0.042,2.789,1.598,2.789,1.598
							s0.441-0.307,1.089-0.133c0.648,0.174,0.348,1.21,0.348,1.21H299.185z"/>
					</g>
				</g>
				<g>
					<g>
						<g>
							<path style="fill:#FF6160;" d="M331.444,136.384c0,0,6.026,9.843,8.621,18.039c0,0-3.55,4.212-5.941,5.111l-6.795-14.843
								C327.329,144.691,328.447,141.173,331.444,136.384z"/>
						</g>
						<g>
							<path style="fill:#FF6160;" d="M328.385,169.199c4.702-7.372,5.739-9.665,5.739-9.665c1.435-3.426,5.941-5.111,5.941-5.111
								l1.245,4.234c0.512,2.043-0.337,4.267-1.929,5.646l-6.285,5.336L328.385,169.199z"/>
						</g>
						<path style="fill:#ECB28A;" d="M333.652,170.712c0,0-0.943-2.633-3.004-2.675c-2.06-0.042-2.789,1.598-2.789,1.598
							s-0.441-0.307-1.089-0.133c-0.648,0.174-0.348,1.21-0.348,1.21H333.652z"/>
					</g>
				</g>
				<g>
					<g>
						<g>
							<g>
								<path style="fill:#ECB28A;" d="M320.035,132.227v-6.493h-7.188v6.493C315.23,133.303,317.626,133.291,320.035,132.227z"/>
								<path style="fill:#E8967C;" d="M320.035,125.734v5.1c-2.811-0.198-5.49-1.632-7.188-2.754v-2.346H320.035z"/>
							</g>
							<path style="fill:#E8967C;" d="M309.121,115.809c0,0-0.562-0.435-1.971-0.766c-1.409-0.332-1.51,1.968-0.64,4.537
								c0.87,2.569,3.066,1.575,3.066,1.575L309.121,115.809z"/>
							<path style="fill:#E8967C;" d="M323.284,115.809c0,0,0.562-0.435,1.971-0.766c1.409-0.332,1.51,1.968,0.64,4.537
								c-0.87,2.569-3.066,1.575-3.066,1.575L323.284,115.809z"/>
							<path style="fill:#ECB28A;" d="M316.427,128.633L316.427,128.633c-4.536,0-8.213-5.154-8.213-9.694v-10.266h16.426v10.266
								C324.64,123.478,320.963,128.633,316.427,128.633z"/>
						</g>
						<path style="fill:#2C2A40;" d="M316.257,106.679c0,0,3.521,8.435,8.638,7.272c0,0,3.586-3.077,0.701-6.686
							C322.301,103.143,317.425,102.585,316.257,106.679z"/>
						<path style="fill:#2C2A40;" d="M318.951,109.704c0,0-3.096,4.271-10.737,4.811c0,0-2.528-4.392-0.478-7.463
							c2.049-3.071,8.521-6.793,14.916-2.419C325.912,106.862,318.951,109.704,318.951,109.704z"/>
						<polygon style="fill:#2C2A40;" points="316.442,104.679 316.442,104.686 316.388,104.682 						"/>
						<polygon style="fill:#2C2A40;" points="316.388,104.682 316.334,104.686 316.334,104.679 						"/>
						<path style="fill:#2C2A40;" d="M309.576,113.91c0,0-0.804,2.099-0.78,4.169c0.012,0.977-0.073,2.746-0.582,2.327
							c-0.509-0.419-1.616-6.27-0.185-7.351C309.46,111.973,309.576,113.91,309.576,113.91z"/>
						<path style="fill:#2C2A40;" d="M322.828,113.91c0,0,0.804,2.099,0.78,4.169c-0.012,0.977,0.073,2.746,0.582,2.327
							c0.509-0.419,1.616-6.27,0.185-7.351C322.945,111.973,322.828,113.91,322.828,113.91z"/>
					</g>
				</g>
			</g>
			<g>
				<g>
					<g>
						<path style="fill:#5C1A31;" d="M361.941,222.387c0,0,0.547,1.673,0.905,4.405c0.358,2.732,0,6.677,0,6.677h-1.281v-3.45
							c0,0-3.056,6.659-7.717,6.146c-4.661-0.512,3.586-11.627,3.586-11.627L361.941,222.387z"/>
						<path style="fill:#ECB28A;" d="M357.433,224.538c0,0-3.227,6.146-2.561,7.53c0.814,1.691,5.839-1.895,7.068-7.53H357.433z"/>
					</g>
					<path style="fill:#ECB28A;" d="M362.375,211.425l-0.434,13.113h-4.507l-4.706-35.095l-0.277-2.055l9.136-1.137l0.57,6.009
						l0.514,5.438C363.195,203.741,362.375,211.425,362.375,211.425z"/>
					<path style="fill:#E8967C;" d="M362.156,192.26c-2.885-0.076-6.802-1.619-9.429-2.817l-0.277-2.055l9.136-1.137L362.156,192.26
						z"/>
				</g>
				<g>
					<g>
						<path style="fill:#5C1A31;" d="M365.67,222.387c0,0-0.547,1.673-0.905,4.405c-0.358,2.732,0,6.677,0,6.677h1.281v-3.45
							c0,0,3.056,6.659,7.717,6.146c4.661-0.512-3.585-11.627-3.585-11.627L365.67,222.387z"/>
						<path style="fill:#ECB28A;" d="M370.177,224.538c0,0,3.227,6.146,2.561,7.53c-0.814,1.691-5.839-1.895-7.068-7.53H370.177z"/>
					</g>
					<path style="fill:#ECB28A;" d="M375.164,187.387l-0.359,2.67l-4.624,34.48h-4.508l-0.434-13.113c0,0-0.82-7.683-0.295-13.727
						l0.516-5.458l0.568-5.989L375.164,187.387z"/>
					<path style="fill:#E8967C;" d="M375.164,187.387l-0.359,2.67c-3.276,1.737-7.792,2.106-9.345,2.182l0.568-5.989
						L375.164,187.387z"/>
				</g>
				<path style="fill:#6230BB;" d="M379.394,163.027c-0.653,7.982-4.209,24.361-4.209,24.361c-7.689,2.532-15.27,2.609-22.735,0
					c0,0-3.554-17.964-4.207-24.361c-0.653-6.396,2.352-13.205,2.352-13.205c5.218,1.557,12.065,1.955,13.224,2.012
					c1.164-0.057,8.007-0.455,13.222-2.012C377.042,149.822,379.918,156.619,379.394,163.027z"/>
				<g>
					<path style="fill:#FFB000;" d="M372.625,132.223l5.239,19.87c0,0-4.694,2.176-11.926,2.551
						c-0.684,0.037-1.391,0.055-2.118,0.055c-0.701,0-1.381-0.014-2.043-0.041c-7.302-0.293-12.189-2.053-12.189-2.053l5.764-20.486
						l-7.103-15.995l11.736-4.505h7.189l12.314,4.505L372.625,132.223z"/>
					<circle style="fill:#FFCE00;" cx="363.857" cy="131.902" r="0.933"/>
					<circle style="fill:#FFCE00;" cx="363.857" cy="136.895" r="0.933"/>
					<polygon style="fill:#FFCE00;" points="359.985,111.617 356.133,113.096 357.399,118.854 359.984,118.854 358.059,121.071 
						359.985,126.398 363.58,126.091 					"/>
					<polygon style="fill:#FFCE00;" points="367.175,111.617 371.026,113.096 369.76,118.854 367.175,118.854 369.1,121.071 
						367.175,126.398 363.58,126.091 					"/>
					
						<rect x="367.61" y="142.738" transform="matrix(0.9366 -0.3505 0.3505 0.9366 -26.7684 139.0049)" style="fill:#FFCE00;" width="6.06" height="1.434"/>
					
						<rect x="353.865" y="142.738" transform="matrix(-0.9366 -0.3505 0.3505 -0.9366 640.8714 402.8972)" style="fill:#FFCE00;" width="6.06" height="1.434"/>
					<polygon style="fill:#FFFFFF;" points="367.173,111.618 363.58,126.091 359.984,111.618 					"/>
					<path style="fill:#FFFFFF;" d="M365.938,154.643c-0.684,0.037-1.391,0.055-2.118,0.055c-0.701,0-1.381-0.014-2.043-0.041
						l2.043-13.508L365.938,154.643z"/>
				</g>
				<g>
					<path style="fill:#FFB000;" d="M379.538,116.123l11.675,14.389l-4.331,3.886c0,0-5.505-3.949-10.948-11.19L379.538,116.123z"/>
					<path style="fill:#FFB000;" d="M373.994,145.067l2.098,2.682c1.242-0.758,2.502-1.764,3.737-2.907
						c5.978-5.54,11.384-14.329,11.384-14.329l-5.819-0.63c0,0-4.528,4.508-6.79,8.472c-0.59,1.035-1.215,2.02-1.807,2.903
						C375.293,143.495,373.994,145.067,373.994,145.067z"/>
					<path style="fill:#FFFFFF;" d="M373.994,145.067l2.098,2.682c1.242-0.758,2.502-1.764,3.737-2.907
						c-0.727-1.301-2.268-2.852-3.032-3.583C375.293,143.495,373.994,145.067,373.994,145.067z"/>
					<path style="fill:#ECB28A;" d="M376.266,142.288c0,0-0.495-2.037-1.45-1.723l0.555,1.991c0,0-2.192,0.182-2.423,1.492
						c-0.231,1.31,1.419,5.264,2.57,5.548c1.151,0.283,3.943-1.416,3.737-3.117C379.05,144.777,377.42,142.781,376.266,142.288z"/>
				</g>
				<g>
					<path style="fill:#2C2A40;" d="M380.14,93.912c0-2.518-1.551-4.673-3.75-5.565c0.264-0.676,0.41-1.41,0.41-2.179
						c0-3.03-2.244-5.534-5.161-5.944c-0.974-1.424-2.611-2.359-4.467-2.359c-1.2,0-2.309,0.392-3.206,1.053
						c-0.897-0.661-2.006-1.053-3.206-1.053c-1.835,0-3.456,0.915-4.434,2.313c-3.135,0.2-5.617,2.805-5.617,5.991
						c0,0.769,0.146,1.503,0.41,2.179c-2.198,0.892-3.75,3.047-3.75,5.565c0,1.558,0.593,2.977,1.566,4.044
						c-0.81,1.023-1.294,2.315-1.294,3.722c0,3.096,2.343,5.643,5.352,5.968c0.829,2.324,3.048,3.988,5.656,3.988
						c2.157,0,4.047-1.138,5.106-2.845c1.059,1.707,2.949,2.845,5.106,2.845c2.608,0,4.827-1.664,5.656-3.988
						c3.009-0.325,5.352-2.873,5.352-5.968c0-1.406-0.485-2.698-1.294-3.722C379.547,96.889,380.14,95.47,380.14,93.912z"/>
					<circle style="fill:#2C2A40;" cx="363.579" cy="92.172" r="10.934"/>
					<g>
						<g>
							<path style="fill:#ECB28A;" d="M367.172,111.625v-6.493h-7.188v6.493C362.367,112.701,364.763,112.689,367.172,111.625z"/>
							<path style="fill:#E8967C;" d="M367.172,105.132v5.1c-2.811-0.198-5.49-1.632-7.188-2.754v-2.346H367.172z"/>
						</g>
						<path style="fill:#E8967C;" d="M356.258,95.206c0,0-0.562-0.435-1.971-0.766c-1.409-0.331-1.51,1.968-0.64,4.537
							c0.87,2.569,3.066,1.575,3.066,1.575L356.258,95.206z"/>
						<path style="fill:#E8967C;" d="M370.421,95.206c0,0,0.562-0.435,1.971-0.766c1.409-0.331,1.51,1.968,0.64,4.537
							c-0.87,2.569-3.066,1.575-3.066,1.575L370.421,95.206z"/>
						<path style="fill:#ECB28A;" d="M363.564,108.031L363.564,108.031c-4.536,0-8.213-5.154-8.213-9.694V88.071h16.426v10.266
							C371.777,102.876,368.1,108.031,363.564,108.031z"/>
					</g>
					<path style="fill:#2C2A40;" d="M363.394,86.077c0,0,3.521,8.435,8.638,7.271c0,0,3.586-3.077,0.701-6.686
						C369.438,82.541,364.562,81.983,363.394,86.077z"/>
					<path style="fill:#2C2A40;" d="M366.088,89.101c0,0-3.096,4.271-10.737,4.811c0,0-2.528-4.392-0.478-7.463
						c2.049-3.071,8.521-6.793,14.916-2.419C373.049,86.26,366.088,89.101,366.088,89.101z"/>
				</g>
				<path style="fill:#FFB000;" d="M348.174,116.102l-12.026,13.002l-8.765,5.083l3.54,3.26c0,0,7.501-3.104,8.681-4.207
					c1.18-1.103,12.205-9.101,12.205-9.101S351.203,118.854,348.174,116.102z"/>
				<path style="fill:#ECB28A;" d="M331.566,136.745c-0.763-1.332-3.21-3.689-5.305-3.721c-2.095-0.032-3.075,3.06-2.583,4.424
					s4.783,3.386,6.347,2.937c0,0,0.756-0.415,0.848-1.191l0.78,1.273C331.653,140.466,333.257,139.698,331.566,136.745z"/>
			</g>
			<g>
				<path style="opacity:0.2;" d="M418.872,118.32c-7.881,0-14.293-6.412-14.293-14.293c0-7.881,6.412-14.293,14.293-14.293
					s14.293,6.412,14.293,14.293C433.165,111.908,426.753,118.32,418.872,118.32z"/>
				<circle style="fill:#2C2A40;" cx="418.872" cy="102.613" r="14.293"/>
				<circle style="fill:#FFFFFF;" cx="418.872" cy="102.613" r="12.19"/>
				<g>
					<g>
						<path style="fill:#2C2A40;" d="M418.872,94.236c-0.221,0-0.4-0.179-0.4-0.4v-2.251c0-0.221,0.179-0.4,0.4-0.4
							s0.4,0.179,0.4,0.4v2.251C419.272,94.057,419.093,94.236,418.872,94.236z"/>
					</g>
					<g>
						<path style="fill:#2C2A40;" d="M418.872,113.779c-0.221,0-0.4-0.179-0.4-0.4v-2.251c0-0.221,0.179-0.4,0.4-0.4
							s0.4,0.179,0.4,0.4v2.251C419.272,113.6,419.093,113.779,418.872,113.779z"/>
					</g>
				</g>
				<g>
					<g>
						<path style="fill:#2C2A40;" d="M410.972,102.482c0,0.221-0.179,0.4-0.4,0.4h-2.251c-0.221,0-0.4-0.179-0.4-0.4
							c0-0.221,0.179-0.4,0.4-0.4h2.251C410.792,102.082,410.972,102.261,410.972,102.482z"/>
					</g>
					<g>
						<path style="fill:#2C2A40;" d="M430.515,102.482c0,0.221-0.179,0.4-0.4,0.4h-2.251c-0.221,0-0.4-0.179-0.4-0.4
							c0-0.221,0.179-0.4,0.4-0.4h2.251C430.336,102.082,430.515,102.261,430.515,102.482z"/>
					</g>
				</g>
				<g>
					<g>
						<path style="fill:#2C2A40;" d="M413.197,96.896c-0.156,0.156-0.41,0.156-0.566,0l-1.592-1.592
							c-0.156-0.156-0.156-0.41,0-0.566c0.156-0.156,0.41-0.156,0.566,0l1.592,1.592C413.353,96.486,413.353,96.74,413.197,96.896z"
							/>
					</g>
					<g>
						<path style="fill:#2C2A40;" d="M427.016,110.715c-0.156,0.156-0.41,0.156-0.566,0l-1.592-1.592
							c-0.156-0.156-0.156-0.41,0-0.566c0.156-0.156,0.41-0.156,0.566,0l1.592,1.592
							C427.172,110.305,427.172,110.559,427.016,110.715z"/>
					</g>
				</g>
				<g>
					<g>
						<path style="fill:#2C2A40;" d="M413.441,108.313c0.156,0.156,0.156,0.41,0,0.566l-1.592,1.592
							c-0.156,0.156-0.41,0.156-0.566,0c-0.156-0.156-0.156-0.41,0-0.566l1.592-1.592
							C413.031,108.156,413.285,108.156,413.441,108.313z"/>
					</g>
					<g>
						<path style="fill:#2C2A40;" d="M427.26,94.493c0.156,0.156,0.156,0.41,0,0.566l-1.592,1.592c-0.156,0.156-0.41,0.156-0.566,0
							c-0.156-0.156-0.156-0.41,0-0.566l1.592-1.592C426.851,94.337,427.104,94.337,427.26,94.493z"/>
					</g>
				</g>
				<path style="opacity:0.2;" d="M431.061,102.612c0,0.354-0.015,0.705-0.045,1.051c-0.532-6.24-5.766-11.137-12.144-11.137
					c-6.379,0-11.613,4.897-12.145,11.137c-0.031-0.346-0.045-0.697-0.045-1.051c0-6.732,5.457-12.189,12.191-12.189
					C425.604,90.423,431.061,95.88,431.061,102.612z"/>
				<polygon style="fill:#FF6160;" points="419.437,102.098 414.888,109.882 418.767,101.877 				"/>
				<path style="fill:#2C2A40;" d="M420.251,102.482c0,0.715-0.58,1.295-1.295,1.295c-0.715,0-1.295-0.58-1.295-1.295
					c0-0.715,0.58-1.295,1.295-1.295C419.671,101.187,420.251,101.767,420.251,102.482z"/>
				<polygon style="fill:#2C2A40;" points="418.323,102.302 418.956,97.013 419.59,102.302 				"/>
				<polygon style="fill:#2C2A40;" points="419.054,101.773 426.826,105.038 418.613,103.137 				"/>
			</g>
			<g>
				<rect x="280.447" y="173.327" style="fill:#383851;" width="168.625" height="5.5"/>
				<rect x="290.747" y="178.827" style="fill:#383851;" width="148.026" height="57.366"/>
				<polygon style="fill:#2C2A40;" points="438.773,178.827 290.747,191.359 290.747,178.827 				"/>
			</g>
			<g>
				<g>
					<path style="fill:#383851;" d="M332.947,140.997v22.214c0,1.199,0.971,2.171,2.171,2.171h36.866c1.2,0,2.174-0.971,2.174-2.171
						v-22.214c0-1.199-0.974-2.174-2.174-2.174h-36.866C333.918,138.823,332.947,139.797,332.947,140.997z"/>
					<path style="fill:#2C2A40;" d="M336.1,140.997v22.214c0,1.199,0.971,2.171,2.171,2.171h33.713c1.2,0,2.174-0.971,2.174-2.171
						v-22.214c0-1.199-0.974-2.174-2.174-2.174h-33.713C337.071,138.823,336.1,139.797,336.1,140.997z"/>
					<path style="fill:#383851;" d="M347.813,152.103h13.493c0.778,0,1.409-0.631,1.409-1.409v-1.475
						c0-0.778-0.631-1.408-1.409-1.408h-13.493c-0.778,0-1.409,0.631-1.409,1.408v1.475
						C346.404,151.473,347.035,152.103,347.813,152.103z"/>
					<path style="fill:#383851;" d="M350.698,152.104v19.415c0,1.002,0.812,1.814,1.814,1.814h3.685
						c1.002,0,1.814-0.812,1.814-1.814v-19.415H350.698z M352.236,168.903v-15.226h4.237v15.226c0,1.002-0.812,1.814-1.814,1.814
						h-0.609C353.048,170.717,352.236,169.905,352.236,168.903z"/>
					
						<rect x="341.116" y="170.717" transform="matrix(-1 -1.224647e-16 1.224647e-16 -1 708.3845 344.0513)" style="fill:#2C2A40;" width="26.153" height="2.618"/>
				</g>
				
					<rect x="298.083" y="170.717" transform="matrix(-1 -1.224647e-16 1.224647e-16 -1 635.3045 344.0513)" style="fill:#2C2A40;" width="39.139" height="2.618"/>
				<path style="fill:#2C2A40;" d="M291.079,173.333h6.977v-0.899c0-0.948-0.769-1.717-1.717-1.717h-3.543
					c-0.948,0-1.717,0.769-1.717,1.717V173.333z"/>
			</g>
		</g>
	</g>
	<g>
		<ellipse style="opacity:0.15;fill:#2C2A40;" cx="146.357" cy="434.08" rx="93.898" ry="5.013"/>
		<g>
			<g>
				<g>
					<path style="fill:#63676D;" d="M184.863,388.246h-37.577v-40.387c0-6.811,5.521-12.332,12.332-12.332h12.913
						c6.811,0,12.332,5.521,12.332,12.332V388.246z"/>
					<path style="fill:#63676D;" d="M186.99,393.949H145.16c-1.575,0-2.851-1.277-2.851-2.851l0,0c0-1.575,1.277-2.851,2.851-2.851
						h41.831c1.575,0,2.851,1.277,2.851,2.851l0,0C189.841,392.672,188.565,393.949,186.99,393.949z"/>
					<g>
						<g>
							<rect x="164.673" y="392.132" style="fill:#63676D;" width="2.868" height="36.214"/>
							<rect x="164.673" y="393.949" style="fill:#404348;" width="2.868" height="5.979"/>
						</g>
						<path style="fill:#2C2A40;" d="M170.102,431.048c0,2.207-1.789,3.995-3.995,3.995c-2.207,0-3.995-1.789-3.995-3.995
							c0-2.207,1.789-3.995,3.995-3.995C168.314,427.052,170.102,428.841,170.102,431.048z"/>
						<path style="fill:#63676D;" d="M166.107,432.994c-1.073,0-1.946-0.873-1.946-1.947c0-1.073,0.873-1.946,1.946-1.946
							c1.073,0,1.946,0.873,1.946,1.946C168.054,432.121,167.18,432.994,166.107,432.994z"/>
					</g>
					<g>
						<g>
							
								<rect x="146.691" y="392.259" transform="matrix(0.9619 0.2733 -0.2733 0.9619 117.8019 -24.8603)" style="fill:#63676D;" width="2.868" height="36.213"/>
							<polygon style="fill:#404348;" points="152.537,400.087 149.564,400.056 151.299,393.949 154.281,393.949 							"/>
						</g>
						<path style="fill:#2C2A40;" d="M146.281,431.475c-0.603,2.122-2.813,3.354-4.935,2.751c-2.122-0.603-3.354-2.813-2.751-4.935
							c0.603-2.122,2.813-3.354,4.935-2.751S146.884,429.352,146.281,431.475z"/>
						<path style="fill:#63676D;" d="M141.906,432.255c-1.032-0.293-1.634-1.372-1.34-2.404c0.293-1.032,1.372-1.634,2.404-1.34
							c1.032,0.293,1.634,1.372,1.34,2.404C144.017,431.947,142.939,432.548,141.906,432.255z"/>
					</g>
					<g>
						<g>
							
								<rect x="183.325" y="392.259" transform="matrix(-0.9619 0.2733 -0.2733 -0.9619 474.6452 754.6078)" style="fill:#63676D;" width="2.868" height="36.213"/>
							<polygon style="fill:#404348;" points="180.348,400.087 183.321,400.056 181.586,393.949 178.604,393.949 							"/>
						</g>
						<path style="fill:#2C2A40;" d="M186.604,431.475c0.603,2.122,2.813,3.354,4.935,2.751c2.122-0.603,3.354-2.813,2.751-4.935
							c-0.603-2.122-2.813-3.354-4.935-2.751C187.232,427.143,186.001,429.352,186.604,431.475z"/>
						<path style="fill:#63676D;" d="M190.979,432.255c1.032-0.293,1.634-1.372,1.34-2.404c-0.293-1.032-1.372-1.634-2.404-1.34
							c-1.032,0.293-1.634,1.372-1.34,2.404C188.868,431.947,189.946,432.548,190.979,432.255z"/>
					</g>
				</g>
				<g>
					<path style="fill:#A0BBE7;" d="M178.604,372.147l1.88-40.725c0,0-3.807-1.014-8.607-1.539
						c-0.307-0.033-0.617-0.064-0.932-0.092c-3-0.279-6.3-0.336-9.265,0.168l-0.449,0.076l-9.399,1.387l0.817,40.63L178.604,372.147
						z"/>
					<path style="fill:#A0BBE7;" d="M161.093,372.052h8.946c0.03-10.021,0.314-25.275,0.905-42.261c-3-0.279-6.3-0.336-9.265,0.168
						l-0.449,0.076C161.324,335.832,161.609,356.771,161.093,372.052z"/>
					<polygon style="fill:#D81F46;" points="165.541,335.684 162.513,360.543 165.978,366.143 169.059,360.133 166.421,335.722 
											"/>
					<path style="fill:#FF2956;" d="M162.513,333.54l2.541,2.733c0.548,0.589,1.485,0.576,2.015-0.029l2.374-2.704l-3.631-2.85
						L162.513,333.54z"/>
				</g>
				<g>
					<g>
						<g>
							<path style="fill:#ECB28A;" d="M169.683,329.888v-6.493h-7.188v6.493C164.877,330.963,167.274,330.952,169.683,329.888z"/>
							<path style="fill:#E8967C;" d="M169.683,323.394v5.1c-2.811-0.198-5.49-1.632-7.188-2.754v-2.346H169.683z"/>
						</g>
						<path style="fill:#E8967C;" d="M158.022,312.79c0,0-0.791-1.861-2.373-2.233s-1.535,3.582-0.558,6.467
							c0.977,2.885,3.443,1.768,3.443,1.768L158.022,312.79z"/>
						<path style="fill:#E8967C;" d="M174.128,312.79c0,0,0.791-1.861,2.373-2.233c1.582-0.372,1.535,3.582,0.558,6.467
							c-0.977,2.885-3.443,1.768-3.443,1.768L174.128,312.79z"/>
						<path style="fill:#ECB28A;" d="M166.059,326.293L166.059,326.293c-4.799,0-8.689-5.154-8.689-9.694v-10.266h17.378v10.266
							C174.748,321.139,170.858,326.293,166.059,326.293z"/>
						<path style="fill:#2C2A40;" d="M157.37,313.801c0,0-2.97-4.467-0.903-7.468c0,0-1.268-2.564,0-5.006
							c1.268-2.443,6.626-5.253,14.094-3.787c7.467,1.466,6.056,6.979,5.122,8.514c0,0,1.857,3.42-0.934,7.747
							c0,0-1.636-2.233-1.132-6.979c0,0-8.313,2.373-15.082-0.488C158.534,306.333,159.464,311.847,157.37,313.801z"/>
					</g>
					<path style="fill:#FFFFFF;" d="M165.812,330.69l-4.517,3.902l-0.5-4.425c-0.007-0.357,0.103-0.715,0.325-1.067
						c0.186-0.294,0.439-0.538,0.719-0.745l0.647-0.48C162.486,327.874,163.146,330.067,165.812,330.69z"/>
					<path style="fill:#FFFFFF;" d="M165.812,330.69l4.972,3.902l0.146-5.059c0.009-0.326-0.127-0.638-0.372-0.853l-0.856-0.748
						C169.701,327.932,168.478,330.067,165.812,330.69z"/>
				</g>
				<g>
					<path style="fill:#2C2A40;" d="M178.604,372.147c0,0-0.051,10.858-2.305,13.663c-2.254,2.805-15.203,2.68-19.813,0.81
						c-4.61-1.87-3.837-14.568-3.837-14.568L178.604,372.147z"/>
					<g>
						<path style="fill:#383851;" d="M162.437,388.557c0.107-1.055,0.268-5.532,0.077-6.575c-0.679-3.711-3.236-11.102-9.198-8.61
							c-6.473,2.706-4.021,15.844-4.021,15.844l3.137,39.102h6.096C158.528,428.319,160.377,408.784,162.437,388.557z"/>
						<g>
							<path style="fill:#2C2A40;" d="M147.615,435.043h11.252c0.193-1.406,0.201-2.829,0.025-4.237l-0.313-2.487h-6.147
								l-0.006,0.027l-0.371,1.576C147.957,432.312,147.615,435.043,147.615,435.043z"/>
							<path style="fill:#2C2A40;" d="M152.055,429.921c0,0,4.079,0,5.446,2.561c0,0-0.408-3.145-5.075-4.137L152.055,429.921z"/>
						</g>
					</g>
					<g>
						<path style="fill:#383851;" d="M170.663,388.557c-0.107-1.055-0.268-5.532-0.077-6.575c0.679-3.711,3.236-11.102,9.198-8.61
							c6.473,2.706,4.021,15.844,4.021,15.844l-3.137,39.102h-6.096C174.573,428.319,172.724,408.784,170.663,388.557z"/>
						<g>
							<path style="fill:#2C2A40;" d="M185.485,435.043h-11.252c-0.193-1.406-0.201-2.829-0.025-4.237l0.313-2.487h6.147
								l0.006,0.027l0.371,1.576C185.143,432.312,185.485,435.043,185.485,435.043z"/>
							<path style="fill:#2C2A40;" d="M181.046,429.921c0,0-4.079,0-5.446,2.561c0,0,0.408-3.145,5.075-4.137L181.046,429.921z"/>
						</g>
					</g>
				</g>
				<g>
					<g>
						<path style="fill:#A0BBE7;" d="M180.484,331.422c0,0,6.822,9.689,9.417,17.885c0,0-3.55,4.212-5.941,5.111l-4.504-9.482
							C179.456,344.936,177.487,336.211,180.484,331.422z"/>
						<path style="fill:#A0BBE7;" d="M182.99,366.153l6.228-6.966c1.592-1.379,2.441-3.603,1.929-5.646l-1.245-4.234
							c0,0-4.506,1.685-5.941,5.111c0,0-2.52,4.238-7.306,11.735H182.99z"/>
					</g>
				</g>
				<g>
					<g>
						<path style="fill:#A0BBE7;" d="M151.831,331.422c0,0-7.497,9.689-10.092,17.885c0,0,3.55,4.212,5.941,5.111l4.504-9.482
							C152.184,344.936,154.828,336.211,151.831,331.422z"/>
						<path style="fill:#A0BBE7;" d="M148.651,366.153l-6.228-6.966c-1.592-1.379-2.441-3.603-1.929-5.646l1.245-4.234
							c0,0,4.506,1.685,5.941,5.111c0,0,2.52,4.238,7.306,11.735H148.651z"/>
					</g>
				</g>
				<g>
					<path style="fill:#EDEDED;" d="M181.927,362.295h-32.282l-2.983-17.446c-0.258-1.511,0.906-2.891,2.438-2.891h33.372
						c1.533,0,2.697,1.38,2.438,2.891L181.927,362.295z"/>
					<path style="fill:#FFFFFF;" d="M179.469,366.089h-27.334c-1.375,0-2.49-1.115-2.49-2.49v-1.304h32.314v1.304
						C181.959,364.974,180.844,366.089,179.469,366.089z"/>
					<path style="opacity:0.5;fill:#383851;" d="M168.917,352.847c0,1.548-1.255,2.804-2.804,2.804
						c-1.548,0-2.804-1.255-2.804-2.804c0-1.549,1.255-2.804,2.804-2.804C167.661,350.043,168.917,351.298,168.917,352.847z"/>
				</g>
			</g>
			<g>
				<g>
					<g>
						<g>
							<rect x="78.321" y="372.122" style="fill:#383851;" width="4.709" height="62.921"/>
							<rect x="78.321" y="372.122" style="fill:#2C2A40;" width="4.709" height="10.57"/>
						</g>
						<g>
							<rect x="196.711" y="372.122" style="fill:#383851;" width="4.709" height="62.921"/>
							<rect x="196.711" y="372.122" style="fill:#2C2A40;" width="4.709" height="10.57"/>
						</g>
					</g>
					<rect x="69.868" y="366.153" style="fill:#383851;" width="140.005" height="5.969"/>
					<rect x="83.03" y="387.603" style="fill:#2C2A40;" width="113.681" height="2.779"/>
					<rect x="83.03" y="397.263" style="fill:#2C2A40;" width="113.681" height="2.78"/>
				</g>
			</g>
			<g>
				<g>
					<g>
						<polygon style="fill:#82423C;" points="141.845,352.92 141.609,354.802 140.191,366.153 133.829,366.153 132.411,354.802 
							132.176,352.92 						"/>
						<path style="fill:#5C1A31;" d="M141.811,352.92h-9.629c-0.372,0-0.673-0.301-0.673-0.673v-0.705
							c0-0.372,0.301-0.673,0.673-0.673h9.629c0.372,0,0.673,0.302,0.673,0.673v0.705
							C142.484,352.618,142.183,352.92,141.811,352.92z"/>
						<polygon style="fill:#5C1A31;" points="141.845,352.92 141.609,354.802 132.411,354.802 132.176,352.92 						"/>
					</g>
				</g>
				<polygon style="fill:#EDEDED;" points="141.408,356.41 140.842,360.944 133.178,360.944 132.612,356.41 				"/>
				<path style="fill:#82423C;" d="M138.968,358.38v0.804h-0.791c-0.164,0.487-0.624,0.837-1.167,0.837
					c-0.542,0-1.002-0.35-1.166-0.837h-0.791v-0.804h0.797c0.169-0.478,0.625-0.82,1.16-0.82c0.535,0,0.992,0.342,1.161,0.82
					H138.968z"/>
			</g>
			<g>
				<path style="fill:#6230BB;" d="M89.736,366.21h-9.594c-1.305,0-2.461-0.84-2.864-2.081l-4.069-12.523
					c-0.166-0.512,0.191-1.045,0.728-1.086c7.408-0.574,14.743-0.575,22.006-0.002c0.536,0.042,0.893,0.574,0.727,1.086
					L92.6,364.129C92.197,365.37,91.041,366.21,89.736,366.21z"/>
				<ellipse style="fill:#5C1A31;" cx="85.004" cy="351.428" rx="10.813" ry="0.603"/>
				<g>
					<g>
						<path style="fill:#107B85;" d="M85.393,342.532c0,0-0.106-6.994-8.911-8.08C76.481,334.452,76.791,344.366,85.393,342.532z"/>
					</g>
					<g>
						<path style="fill:#079798;" d="M84.432,328.499v22.856c0.367,0.102,0.71,0.102,1.014,0v-22.856
							c0-0.28-0.227-0.507-0.507-0.507l0,0C84.659,327.992,84.432,328.219,84.432,328.499z"/>
					</g>
					<g>
						<path style="fill:#079798;" d="M84.805,334.669c0,0,5.175,4.903,11.095-4.648C95.9,330.021,85.647,327.968,84.805,334.669z"/>
					</g>
					<g>
						<path style="fill:#079798;" d="M85.162,342.406c0,0,5.78,4.173,10.38-6.079C95.543,336.328,85.109,335.653,85.162,342.406z"/>
					</g>
					<g>
						<path style="fill:#079798;" d="M84.939,343.293c0,0-0.204-7.126-11.139-4.542C73.8,338.751,79.611,347.443,84.939,343.293z"/>
					</g>
					<g>
						<path style="fill:#079798;" d="M85.465,334.308c0,0-0.029-7.129-11.024-4.814C74.44,329.495,80.037,338.327,85.465,334.308z"
							/>
					</g>
					<g>
						<path style="fill:#079798;" d="M84.806,329.724c0,0,6.642-2.589,0.529-12.017C85.335,317.707,79.105,326.104,84.806,329.724z"
							/>
					</g>
				</g>
			</g>
			<g>
				<rect x="99.966" y="299.357" style="opacity:0.2;" width="16.199" height="12.923"/>
				<g>
					<rect x="99.966" y="298.139" style="fill:#EDEDED;" width="16.199" height="12.923"/>
					<path style="fill:#FF2956;" d="M99.966,294.863v3.316h16.199v-3.316H99.966z M102.177,297.255c-0.44,0-0.798-0.357-0.798-0.798
						c0-0.44,0.357-0.797,0.798-0.797c0.441,0,0.797,0.357,0.797,0.797C102.974,296.898,102.618,297.255,102.177,297.255z
						 M113.955,297.255c-0.44,0-0.798-0.357-0.798-0.798c0-0.44,0.357-0.797,0.798-0.797s0.797,0.357,0.797,0.797
						C114.752,296.898,114.396,297.255,113.955,297.255z"/>
					<path style="fill:#FFFFFF;" d="M102.353,296.458h-0.351c-0.185,0-0.335-0.15-0.335-0.335v-2.72c0-0.185,0.15-0.336,0.335-0.336
						h0.351c0.185,0,0.336,0.15,0.336,0.336v2.72C102.688,296.308,102.538,296.458,102.353,296.458z"/>
					<path style="fill:#FFFFFF;" d="M114.13,296.458h-0.351c-0.185,0-0.335-0.15-0.335-0.335v-2.72c0-0.185,0.15-0.336,0.335-0.336
						h0.351c0.185,0,0.336,0.15,0.336,0.336v2.72C114.466,296.308,114.316,296.458,114.13,296.458z"/>
					<g>
						<path style="fill:#2C2A40;" d="M104.539,301.377c0.942,0,1.152-0.454,1.341-0.975h0.82v7.755h-1.219v-5.916h-0.942V301.377z"
							/>
						<path style="fill:#2C2A40;" d="M109.957,301.422c-0.388,0-0.632,0.211-0.632,0.764v0.831h-1.152v-0.753
							c0-1.241,0.62-1.95,1.817-1.95c1.197,0,1.817,0.709,1.817,1.95c0,2.437-2.426,3.346-2.426,4.62c0,0.055,0,0.111,0.011,0.166
							h2.305v1.108h-3.523v-0.953c0-2.282,2.415-2.659,2.415-4.897C110.588,301.61,110.345,301.422,109.957,301.422z"/>
					</g>
				</g>
			</g>
			<g>
				<g>
					<path style="fill:#00B3D8;" d="M126.706,351.57v4.859h-22.014c-0.693,0-1.254-0.561-1.254-1.254v-2.35
						c0-0.693,0.562-1.254,1.254-1.254H126.706z"/>
					<path style="fill:#EDEDED;" d="M126.706,352.185v3.629h-19.974c-0.64,0-1.159-0.519-1.159-1.159v-1.309
						c0-0.642,0.519-1.161,1.159-1.161H126.706z"/>
					<rect x="107.6" y="352.921" style="fill:#9CA4AE;" width="19.106" height="0.32"/>
					<rect x="107.6" y="353.839" style="fill:#9CA4AE;" width="19.106" height="0.32"/>
					<rect x="107.6" y="354.757" style="fill:#9CA4AE;" width="19.106" height="0.32"/>
				</g>
				<g>
					<path style="fill:#FF2956;" d="M123.441,356.428v4.859h-22.014c-0.693,0-1.254-0.562-1.254-1.254v-2.35
						c0-0.693,0.562-1.254,1.254-1.254H123.441z"/>
					<path style="fill:#EDEDED;" d="M123.441,357.043v3.629h-19.975c-0.64,0-1.159-0.519-1.159-1.159v-1.309
						c0-0.642,0.519-1.161,1.159-1.161H123.441z"/>
					<rect x="104.336" y="357.78" style="fill:#9CA4AE;" width="19.106" height="0.32"/>
					<rect x="104.336" y="358.698" style="fill:#9CA4AE;" width="19.106" height="0.32"/>
					<rect x="104.336" y="359.616" style="fill:#9CA4AE;" width="19.106" height="0.32"/>
				</g>
				<g>
					<path style="fill:#6230BB;" d="M127.774,361.287v4.859h-22.014c-0.693,0-1.254-0.561-1.254-1.254v-2.35
						c0-0.693,0.562-1.254,1.254-1.254H127.774z"/>
					<path style="fill:#EDEDED;" d="M127.774,361.902v3.629h-19.975c-0.64,0-1.159-0.519-1.159-1.159v-1.309
						c0-0.643,0.519-1.161,1.159-1.161H127.774z"/>
					<rect x="108.668" y="362.638" style="fill:#9CA4AE;" width="19.106" height="0.32"/>
					<rect x="108.668" y="363.556" style="fill:#9CA4AE;" width="19.106" height="0.32"/>
					<rect x="108.668" y="364.474" style="fill:#9CA4AE;" width="19.106" height="0.32"/>
				</g>
			</g>
		</g>
	</g>
	<g>
		<ellipse style="opacity:0.15;fill:#2C2A40;" cx="368.891" cy="434.08" rx="98.174" ry="5.013"/>
		<g>
			<g>
				<g>
					<rect x="281.615" y="370.749" style="fill:#82423C;" width="4.643" height="62.959"/>
					<rect x="281.615" y="370.749" style="fill:#5C1A31;" width="4.643" height="10.576"/>
				</g>
				<g>
					<rect x="373.668" y="370.749" style="fill:#82423C;" width="4.643" height="62.959"/>
					<rect x="373.668" y="370.749" style="fill:#5C1A31;" width="4.643" height="10.576"/>
				</g>
				<rect x="273.824" y="364.776" style="fill:#82423C;" width="111.719" height="5.973"/>
				<rect x="286.257" y="386.239" style="fill:#5C1A31;" width="87.411" height="2.781"/>
				<rect x="286.257" y="395.905" style="fill:#5C1A31;" width="87.411" height="2.781"/>
			</g>
			<g>
				
					<ellipse transform="matrix(0.9998 -0.019 0.019 0.9998 -5.6571 5.5144)" style="opacity:0.2;" cx="286.823" cy="299.901" rx="14.293" ry="14.293"/>
				<path style="fill:#2C2A40;" d="M286.823,312.78c-7.881,0-14.293-6.412-14.293-14.293c0-7.881,6.412-14.293,14.293-14.293
					c7.881,0,14.293,6.412,14.293,14.293C301.116,306.368,294.704,312.78,286.823,312.78z"/>
				<circle style="fill:#FFFFFF;" cx="286.823" cy="298.487" r="12.19"/>
				<g>
					<g>
						<path style="fill:#2C2A40;" d="M286.823,290.111c-0.221,0-0.4-0.179-0.4-0.4v-2.251c0-0.221,0.179-0.4,0.4-0.4
							s0.4,0.179,0.4,0.4v2.251C287.223,289.931,287.044,290.111,286.823,290.111z"/>
					</g>
					<g>
						<path style="fill:#2C2A40;" d="M286.823,309.654c-0.221,0-0.4-0.179-0.4-0.4v-2.251c0-0.221,0.179-0.4,0.4-0.4
							s0.4,0.179,0.4,0.4v2.251C287.223,309.474,287.044,309.654,286.823,309.654z"/>
					</g>
				</g>
				<g>
					<g>
						<path style="fill:#2C2A40;" d="M278.923,298.356c0,0.221-0.179,0.4-0.4,0.4h-2.251c-0.221,0-0.4-0.179-0.4-0.4
							c0-0.221,0.179-0.4,0.4-0.4h2.251C278.744,297.956,278.923,298.135,278.923,298.356z"/>
					</g>
					<g>
						<path style="fill:#2C2A40;" d="M298.466,298.356c0,0.221-0.179,0.4-0.4,0.4h-2.251c-0.221,0-0.4-0.179-0.4-0.4
							c0-0.221,0.179-0.4,0.4-0.4h2.251C298.287,297.956,298.466,298.135,298.466,298.356z"/>
					</g>
				</g>
				<g>
					<g>
						<path style="fill:#2C2A40;" d="M281.148,292.77c-0.156,0.156-0.41,0.156-0.566,0l-1.592-1.592
							c-0.156-0.156-0.156-0.41,0-0.566c0.156-0.156,0.41-0.156,0.566,0l1.592,1.592
							C281.304,292.361,281.304,292.614,281.148,292.77z"/>
					</g>
					<g>
						<path style="fill:#2C2A40;" d="M294.967,306.589c-0.156,0.156-0.41,0.156-0.566,0l-1.592-1.592
							c-0.156-0.156-0.156-0.41,0-0.566c0.156-0.156,0.41-0.156,0.566,0l1.592,1.592
							C295.123,306.18,295.123,306.433,294.967,306.589z"/>
					</g>
				</g>
				<g>
					<g>
						<path style="fill:#2C2A40;" d="M281.392,304.187c0.156,0.156,0.156,0.41,0,0.566l-1.592,1.592
							c-0.156,0.156-0.41,0.156-0.566,0c-0.156-0.156-0.156-0.41,0-0.566l1.592-1.592
							C280.983,304.031,281.236,304.031,281.392,304.187z"/>
					</g>
					<g>
						<path style="fill:#2C2A40;" d="M295.212,290.368c0.156,0.156,0.156,0.41,0,0.566l-1.592,1.592
							c-0.156,0.156-0.41,0.156-0.566,0c-0.156-0.156-0.156-0.41,0-0.566l1.592-1.592
							C294.802,290.212,295.055,290.212,295.212,290.368z"/>
					</g>
				</g>
				<path style="opacity:0.2;" d="M299.012,298.487c0,0.354-0.015,0.705-0.045,1.052c-0.532-6.24-5.766-11.137-12.144-11.137
					c-6.379,0-11.613,4.897-12.145,11.137c-0.031-0.346-0.045-0.697-0.045-1.052c0-6.732,5.457-12.189,12.191-12.189
					C293.555,286.297,299.012,291.755,299.012,298.487z"/>
				<polygon style="fill:#FF6160;" points="287.388,297.972 282.839,305.757 286.718,297.751 				"/>
				<path style="fill:#2C2A40;" d="M288.202,298.356c0,0.715-0.58,1.295-1.295,1.295s-1.295-0.58-1.295-1.295
					c0-0.715,0.58-1.295,1.295-1.295S288.202,297.641,288.202,298.356z"/>
				<polygon style="fill:#2C2A40;" points="286.274,298.176 286.908,292.887 287.541,298.176 				"/>
				<polygon style="fill:#2C2A40;" points="287.005,297.647 294.778,300.913 286.564,299.011 				"/>
			</g>
			<g>
				<path style="fill:#2C2A40;" d="M389.865,354.925l0.194,10.077c0,0,5.259,3.688,14.242,2.868
					c9.061-0.827,14.481-4.82,14.481-4.82c-0.343-3.707-0.896-7.575-2.019-11.112C416.763,351.94,399.436,350.581,389.865,354.925z"
					/>
				<g>
					<path style="fill:#383851;" d="M423.828,424.283c-0.183-3.769-0.507-11.123-0.809-14.28
						c-0.178-1.859-0.205-15.944-3.278-18.831c0,0,0.928-26.578-2.908-37.603l-13.471,3.412l7.774,38.271l7.683,30.314
						C420.819,425.63,421.999,425.529,423.828,424.283z"/>
					<g>
						<path style="fill:#82423C;" d="M426.303,433.707h-18.235c2.184-4.165,10.244-5.788,10.244-5.788l0.289-1.346l0.217-1.008
							c1.735-0.973,5.009-1.283,5.009-1.283L426.303,433.707z"/>
						<path style="fill:#5C1A31;" d="M422.836,428.995c-1.69-1.383-4.524-1.076-4.524-1.076l0.289-1.346
							C422.181,426.772,422.836,428.995,422.836,428.995z"/>
					</g>
				</g>
				<g>
					<g>
						<path style="fill:#82423C;" d="M395.387,433.81l-15.974,0.137c2.184-4.165,10.244-5.788,10.244-5.788l0.289-1.346l0.404-1.761
							c1.735-0.973,6.676-0.529,6.676-0.529L395.387,433.81z"/>
						<path style="fill:#5C1A31;" d="M394.181,429.234c-1.69-1.383-4.524-1.076-4.524-1.076l0.289-1.346
							C393.525,427.011,394.181,429.234,394.181,429.234z"/>
					</g>
					<path style="fill:#2C2A40;" d="M396.982,424.769c0.673-3.713,1.025-9.328,1.444-12.472c0.247-1.851,2.746-16.155,0.404-19.661
						c0,0,5.618-27.457,4.371-39.065l-13.141,11.432l-0.534,29.663l0.824,30.385C392.284,425.566,394.919,425.571,396.982,424.769z"
						/>
				</g>
				<g>
					<path style="fill:#2C2A40;" d="M417.236,353.571c-4.403,1.955-8.583,3.678-12.897,3.456c-2.699-0.139-4.786-0.151-8.731-0.151
						c-1.903,0-3.686-0.079-5.718-0.663l0.465-50.291l6.414-1.82c0,0,0,0,0.002-0.002l8.606-1.776l9.331,1.116L417.236,353.571z"/>
					<path style="fill:#EDEDED;" d="M404.339,357.026c-2.516,0.154-5.867,0.516-8.731-0.151c0.12-7.746,0.619-41.42,1.161-52.774
						c0,0,0,0,0.002-0.002l8.606-1.776C405.377,302.325,403.069,340.777,404.339,357.026z"/>
					<polygon style="fill:#E93552;" points="399.461,309.655 397.407,335.205 400.253,340.914 402.623,334.71 400.164,309.684 					
						"/>
					<polygon style="fill:#FF6160;" points="397.786,307.481 399.825,311.216 401.823,307.044 399.472,305.339 					"/>
				</g>
				<g>
					<g>
						<g>
							<path style="fill:#ECB28A;" d="M405.376,302.431c-2.279,2.453-5.012,3.186-7.989,2.999l-0.555-2.72l-0.706-3.461
								c0,0,0.75-1.296,2.014-2.579c1.425-1.443,3.505-2.871,5.905-2.41L405.376,302.431z"/>
							<path style="fill:#E8967C;" d="M403.07,295.437c0,0-1.485,5.696-6.237,7.273l-0.706-3.461c0,0,0.75-1.296,2.014-2.579
								L403.07,295.437z"/>
							<path style="fill:#ECB28A;" d="M389.464,278.799l-2.244,17.272c-0.297,2.29,1.415,4.359,3.722,4.472
								c4.431,0.218,11.225-0.589,14.732-6.759C411.148,284.15,399.724,272.954,389.464,278.799z"/>
							<path style="fill:#ECB28A;" d="M388.561,285.75l-2.391,4.725c-0.279,0.551-0.057,1.223,0.495,1.499l1.021,0.512
								C387.686,292.487,389.429,291.305,388.561,285.75z"/>
							<path style="fill:#2C2A40;" d="M389.981,280.258c0,0-4.345-1.831-3.523-6.088c1.546-8.004,16.003-1.19,21.452,2.083
								c6.18,3.712,2.326,14.237,0.39,17.223c-0.794,1.224-1.834,2.055-2.787,2.61c-1.181,0.688-2.865-0.272-3.259-1.581
								c-0.39-1.295-0.906-2.777,1.445-5.709c1.727-2.154-0.406-5.542-2.917-3.546c-2.511,1.996-3.419,1.526-2.505-1.24
								C399.192,281.243,394.265,279.407,389.981,280.258z"/>
						</g>
						<path style="fill:#2C2A40;" d="M398.065,285.295c0,0-2.612,9.421-5.363,7.843c-2.751-1.578-5.267-0.262-5.267-0.262
							c-2.613,9.278,2.655,9.381,4.903,8.847c3.706-0.878,4.185-6.212,4.62-8.877c0.435-2.664,3.145-7.089,3.145-7.089
							L398.065,285.295z M388.818,297.504c-0.787-0.724-0.863-2.13-0.843-2.864c0.007-0.271,0.19-0.499,0.421-0.528
							c0.682-0.086,2.076-0.192,2.686,0.27C391.603,294.777,389.912,298.511,388.818,297.504z"/>
					</g>
					<path style="fill:#FFFFFF;" d="M399.472,305.339l3.889,2.821c0,0,4.299-4.142,3.613-6.186
						c-0.685-2.044-1.898-1.397-1.898-1.397S402.788,304.114,399.472,305.339z"/>
					<path style="fill:#FFFFFF;" d="M396.77,302.36c0,0-1.815,1.676-1.88,3.061c-0.066,1.385,2.209,2.933,2.209,2.933l2.374-3.015
						c-0.612,0.086-1.341,0.09-2.06,0.049L396.77,302.36z"/>
				</g>
				<g>
					<path style="fill:#2C2A40;" d="M390.355,305.922c0,0-7.658,15.277-10.947,25.034l7.13,2.682c0,0,9.74-12.755,8.18-22.658
						C394.718,310.98,395.608,308.354,390.355,305.922z"/>
					<path style="fill:#2C2A40;" d="M387.148,332.421c0,0-6.657-2.666-8.142-1.4c0,0-4.637,5.085-8.263,8.382
						c-2.376,2.16-4.432,3.796-5.714,4.771c-0.883,0.671-1.397,1.028-1.397,1.028l2.256,4.352c0,0,0.499-0.301,1.347-0.828
						C371.712,345.942,385.87,336.849,387.148,332.421z"/>
					<path style="fill:#FFFFFF;" d="M367.236,348.726l-2.206-4.552c-0.883,0.671-1.397,1.028-1.397,1.028l2.256,4.352
						C365.888,349.555,366.388,349.253,367.236,348.726z"/>
					<path style="fill:#ECB28A;" d="M363.632,345.202c0,0-1.9-0.426-3.45-0.633c-1.55-0.207-2.377,0.077-2.987,0.339
						c-0.611,0.262,0.299,1.335,1.568,1.279c1.268-0.056-2.798,1.251-3.413,2.164c-1.798,2.669,0.542,5.31,2.251,5.216
						c2.353-0.13,8.287-4.014,8.287-4.014L363.632,345.202z"/>
				</g>
				<g>
					<g>
						<path style="fill:#82423C;" d="M458.967,357.536l4.706,21.228c0.264,1.192-0.489,2.374-1.681,2.639l-34.434,7.633
							c-1.192,0.264-2.374-0.489-2.639-1.681l-4.706-21.228c-0.264-1.192,0.489-2.372,1.682-2.636l34.434-7.633
							C457.521,355.593,458.702,356.344,458.967,357.536z"/>
						<g>
							<path style="fill:#5C1A31;" d="M431.805,361.293l-0.254-1.147c-0.334-1.508,0.621-3.006,2.128-3.341l9.143-2.027
								c1.508-0.334,3.006,0.621,3.341,2.128l0.254,1.147l1.728-0.383l-0.254-1.147c-0.546-2.461-2.991-4.018-5.451-3.473
								l-9.143,2.027c-2.46,0.546-4.018,2.991-3.473,5.452l0.254,1.147L431.805,361.293z"/>
						</g>
						<path style="fill:#5C1A31;" d="M461.149,367.383l2.523,11.382c0.264,1.192-0.489,2.374-1.681,2.639l-34.434,7.633
							c-1.192,0.264-2.374-0.489-2.639-1.681l-2.523-11.382L461.149,367.383z"/>
						<path style="fill:#EDEDED;" d="M433.663,375.447l-0.954,0.212c-0.503,0.112-1.002-0.206-1.113-0.709l-0.444-2.003
							c-0.112-0.503,0.206-1.002,0.709-1.113l0.954-0.211c0.503-0.112,1.002,0.206,1.113,0.709l0.444,2.003
							C434.484,374.837,434.166,375.335,433.663,375.447z"/>
						<path style="fill:#EDEDED;" d="M451.7,371.448l-0.954,0.211c-0.503,0.112-1.002-0.206-1.113-0.709l-0.444-2.003
							c-0.112-0.503,0.206-1.002,0.709-1.113l0.954-0.212c0.503-0.112,1.002,0.206,1.113,0.709l0.444,2.003
							C452.521,370.838,452.203,371.337,451.7,371.448z"/>
					</g>
					<g>
						<g>
							<path style="fill:#2C2A40;" d="M414.703,303.438c0,0,14.513,9.518,18.077,19.213c0,0-2.457,3.725-5.94,4.238
								c0,0-9.657-7.799-11.603-12.977C415.236,313.91,412.859,308.501,414.703,303.438z"/>
						</g>
						<path style="fill:#2C2A40;" d="M426.84,326.888c0,0,0.46,4.265,2.819,9.621c1.847,4.192,5.267,13.859,5.267,13.859
							l3.753-1.116c0,0-1.852-21.199-5.9-26.602C432.78,322.65,428.866,322.876,426.84,326.888z"/>
						<path style="fill:#ECB28A;" d="M434.926,350.368c0,0-2.416,1.634-2.054,3.34c0.357,1.683,1.169,1.906,2.054,2.664
							c0,0,0.19,2.781,2.971,2.528c2.781-0.253,4.043-1.574,4.045-2.971c0.008-3.919-3.263-6.678-3.263-6.678L434.926,350.368z"/>
					</g>
				</g>
			</g>
			<g>
				<g>
					<path style="fill:#2A2D65;" d="M338.836,305.922c0,0,1.893,16.984,1.599,27.276l-7.618,0.046c0,0-4.72-15.339,0.174-24.088
						C332.991,309.156,333.066,306.384,338.836,305.922z"/>
					<path style="fill:#2A2D65;" d="M332.667,331.892c0,0,7.168-0.196,8.123,1.506c0,0,2.589,6.376,4.849,10.725
						c1.48,2.849,2.843,5.096,3.708,6.454c0.596,0.935,0.954,1.449,0.954,1.449l-3.624,3.302c0,0-0.364-0.456-0.977-1.244
						C342.464,349.922,332.332,336.489,332.667,331.892z"/>
					<path style="fill:#FFFFFF;" d="M345.699,354.084l3.646-3.507c0.596,0.935,0.954,1.449,0.954,1.449l-3.624,3.302
						C346.676,355.328,346.312,354.872,345.699,354.084z"/>
					<path style="fill:#ECB28A;" d="M350.3,352.026c0,0,1.93,0.258,3.456,0.601c1.526,0.343,2.203,0.896,2.685,1.353
						s-0.743,1.149-1.914,0.657c-1.171-0.492,2.192,2.143,2.453,3.213c0.762,3.126-2.348,4.794-3.918,4.114
						c-2.163-0.936-6.384-6.636-6.384-6.636L350.3,352.026z"/>
				</g>
				<path style="fill:#2A2D65;" d="M339.291,354.925l-0.194,10.077c0,0-5.259,3.688-14.242,2.868
					c-9.061-0.827-14.481-4.82-14.481-4.82c0.343-3.707,0.896-7.575,2.019-11.112C312.393,351.94,329.72,350.581,339.291,354.925z"
					/>
				<g>
					<path style="fill:#243878;" d="M305.328,424.283c0.183-3.769,0.507-11.123,0.809-14.28c0.178-1.859,0.205-15.944,3.278-18.831
						c0,0-0.928-26.578,2.908-37.603l13.471,3.412l-7.774,38.271l-7.683,30.314C308.337,425.63,307.157,425.529,305.328,424.283z"/>
					<g>
						<path style="fill:#82423C;" d="M302.853,433.707h18.235c-2.184-4.165-10.244-5.788-10.244-5.788l-0.289-1.346l-0.217-1.008
							c-1.735-0.973-5.009-1.283-5.009-1.283L302.853,433.707z"/>
						<path style="fill:#5C1A31;" d="M306.32,428.995c1.69-1.383,4.524-1.076,4.524-1.076l-0.289-1.346
							C306.975,426.772,306.32,428.995,306.32,428.995z"/>
					</g>
				</g>
				<g>
					<g>
						<path style="fill:#82423C;" d="M333.77,433.81l15.974,0.137c-2.184-4.165-10.244-5.788-10.244-5.788l-0.289-1.346
							l-0.404-1.761c-1.735-0.973-6.676-0.529-6.676-0.529L333.77,433.81z"/>
						<path style="fill:#5C1A31;" d="M334.976,429.234c1.69-1.383,4.524-1.076,4.524-1.076l-0.289-1.346
							C335.631,427.011,334.976,429.234,334.976,429.234z"/>
					</g>
					<path style="fill:#2A2D65;" d="M332.174,424.769c-0.673-3.713-1.025-9.328-1.444-12.472
						c-0.247-1.851-2.746-16.155-0.404-19.661c0,0-5.618-27.457-4.371-39.065l13.141,11.432l0.534,29.663l-0.824,30.385
						C336.872,425.566,334.237,425.571,332.174,424.769z"/>
				</g>
				<g>
					<path style="fill:#2A2D65;" d="M311.921,353.571c4.403,1.955,8.583,3.678,12.897,3.456c2.699-0.139,4.786-0.151,8.731-0.151
						c1.903,0,3.685-0.079,5.718-0.663l-0.465-50.291l-6.413-1.82c0,0,0,0-0.002-0.002l-8.606-1.776l-9.331,1.116L311.921,353.571z"
						/>
					<path style="fill:#EDEDED;" d="M324.817,357.026c2.516,0.154,5.867,0.516,8.731-0.151c-0.12-7.746-0.619-41.42-1.161-52.774
						c0,0,0,0-0.002-0.002l-8.606-1.776C323.779,302.325,326.087,340.777,324.817,357.026z"/>
					<polygon style="fill:#E93552;" points="329.695,309.655 331.749,335.205 328.903,340.914 326.533,334.71 328.993,309.684 					
						"/>
					<polygon style="fill:#FF6160;" points="331.37,307.481 329.331,311.216 327.333,307.044 329.684,305.339 					"/>
				</g>
				<g>
					<g>
						<path style="fill:#ECB28A;" d="M323.789,302.812c2.396,2.339,5.162,2.937,8.126,2.605l0.421-2.743l0.536-3.492
							c0,0-0.812-1.258-2.138-2.477c-1.494-1.372-3.641-2.696-6.016-2.118L323.789,302.812z"/>
						<path style="fill:#E8967C;" d="M325.751,295.714c0,0,1.761,5.617,6.585,6.96l0.536-3.492c0,0-0.812-1.258-2.138-2.477
							L325.751,295.714z"/>
						<path style="fill:#ECB28A;" d="M338.528,278.432l3.084,17.142c0.409,2.273-1.201,4.423-3.499,4.648
							c-4.415,0.434-11.241-0.04-15.044-6.032C317.132,284.835,327.995,273.095,338.528,278.432z"/>
						<path style="fill:#ECB28A;" d="M339.77,285.331l2.619,4.603c0.305,0.536,0.116,1.219-0.421,1.522l-0.995,0.561
							C340.973,292.016,339.174,290.922,339.77,285.331z"/>
						<path style="fill:#2C2A40;" d="M319.924,275.878c-5.97,4.04-1.572,15.245,0.507,18.133c0.852,1.184,1.933,1.963,2.911,2.471
							c1.213,0.63,2.848-0.412,3.178-1.738c0.326-1.313,0.769-2.818-1.722-5.632c-1.83-2.067,0.135-5.555,2.741-3.684
							c2.606,1.871,3.49,1.358,2.442-1.361c-1.048-2.719,3.784-4.794,8.104-4.153c0,0,4.338-0.781,3.136-5.883
							c-1.202-5.102-7.462-5.607-7.462-5.607s2.363,2.098-0.086,3.461C331.222,273.248,324.063,273.076,319.924,275.878z"/>
					</g>
					<path style="fill:#FFFFFF;" d="M329.684,305.339l-3.889,2.821c0,0-4.299-4.142-3.614-6.186
						c0.685-2.044,1.898-1.397,1.898-1.397S326.368,304.114,329.684,305.339z"/>
					<path style="fill:#FFFFFF;" d="M332.387,302.36c0,0,1.815,1.676,1.88,3.061c0.066,1.385-2.209,2.933-2.209,2.933l-2.374-3.015
						c0.612,0.086,1.341,0.09,2.06,0.049L332.387,302.36z"/>
				</g>
				<g>
					<path style="fill:#243878;" d="M314.448,303.441c0,0,13.65,19.071,18.238,28.289l-6.698,3.628c0,0-10.426-10.389-14.066-20.194
						C311.921,315.163,309.576,306.566,314.448,303.441z"/>
					<path style="fill:#243878;" d="M325.217,334.235c0,0,6.231-3.548,7.875-2.496c0,0,5.286,4.405,9.328,7.178
						c2.648,1.816,4.908,3.157,6.31,3.948c0.966,0.544,1.524,0.829,1.524,0.829l-1.642,4.619c0,0-0.536-0.23-1.448-0.637
						C342.351,345.527,327.087,338.448,325.217,334.235z"/>
					<path style="fill:#FFFFFF;" d="M347.165,347.675l1.565-4.811c0.966,0.544,1.524,0.829,1.524,0.829l-1.642,4.619
						C348.613,348.313,348.077,348.082,347.165,347.675z"/>
					<path style="fill:#ECB28A;" d="M350.255,343.693c0,0,1.824-0.681,3.332-1.097c1.507-0.416,2.365-0.247,3.005-0.071
						c0.641,0.176-0.115,1.363-1.379,1.481c-1.264,0.117,2.942,0.858,3.676,1.679c2.145,2.399,0.187,5.335-1.519,5.474
						c-2.349,0.192-8.757-2.848-8.757-2.848L350.255,343.693z"/>
				</g>
			</g>
		</g>
	</g>
</g>
<g id="DESIGNED_BY_FREEPIK">
	<g>
		<g id="XMLID_1_">
			<g id="XMLID_20_">
				<path id="XMLID_28_" style="fill:#112129;" d="M260.104,465.465c-0.432,0.443-0.803,0.931-1.108,1.453l-0.465-0.241
					c-0.067-0.298-0.349-0.503-0.659-0.466c-0.331,0.039-0.568,0.339-0.529,0.67c0.039,0.331,0.339,0.568,0.67,0.529
					c0.065-0.008,0.127-0.026,0.183-0.052l0.452,0.234c-0.251,0.554-0.433,1.139-0.539,1.744l0.747,0.132
					c0.23-1.306,0.85-2.507,1.792-3.473L260.104,465.465z"/>
				<path id="XMLID_27_" style="fill:#112129;" d="M265.592,463.163c-0.171,0-0.341,0.006-0.51,0.017l-0.074-0.626
					c0.188-0.149,0.296-0.389,0.266-0.645c-0.046-0.393-0.402-0.674-0.795-0.628c-0.393,0.046-0.674,0.402-0.628,0.795
					c0.03,0.254,0.189,0.461,0.405,0.564l0.073,0.624c-0.714,0.116-1.403,0.332-2.06,0.646l0.327,0.684
					c0.934-0.447,1.942-0.673,2.995-0.673c0.496,0,0.993,0.053,1.475,0.158l0.161-0.741
					C266.692,463.222,266.142,463.163,265.592,463.163z"/>
				<path id="XMLID_26_" style="fill:#112129;" d="M272.194,465.711c0.331-0.04,0.566-0.341,0.526-0.672
					c-0.04-0.331-0.341-0.566-0.672-0.526c-0.309,0.038-0.535,0.304-0.53,0.609l-0.416,0.363c-0.418-0.43-0.89-0.813-1.408-1.139
					l-0.404,0.641c1.134,0.715,2.021,1.726,2.563,2.925l0.691-0.313c-0.251-0.554-0.568-1.072-0.942-1.545l0.402-0.351
					C272.065,465.716,272.129,465.719,272.194,465.711z"/>
				<path id="XMLID_25_" style="fill:#112129;" d="M265.044,473.372c-0.386,0.023-0.775,0.035-1.157,0.035
					c-0.88,0-1.733-0.061-2.478-0.179c-0.39-0.062-0.846-0.155-1.27-0.292c1.046,1.861,3.069,3.125,5.388,3.125
					c2.855,0,5.262-1.916,5.95-4.504c-0.682,0.449-1.505,0.825-2.459,1.123C267.839,473.047,266.464,473.286,265.044,473.372z"/>
				<path id="XMLID_21_" style="fill:#112129;" d="M265.592,464.68c-3.352,0-6.08,2.666-6.08,5.943c0,0.426,0.046,0.849,0.137,1.261
					c0.673,0.483,2.706,0.89,5.348,0.731c2.879-0.173,5.297-0.957,6.672-2.159c-0.005-0.195-0.021-0.39-0.045-0.582
					C271.244,466.913,268.65,464.68,265.592,464.68z M263.432,471.194c-1.02,0-1.85-0.83-1.85-1.85c0-1.02,0.83-1.85,1.85-1.85
					c1.02,0,1.85,0.83,1.85,1.85C265.282,470.365,264.452,471.194,263.432,471.194z M268.17,470.286c-0.75,0-1.36-0.61-1.36-1.36
					s0.61-1.361,1.36-1.361c0.75,0,1.361,0.61,1.361,1.361S268.92,470.286,268.17,470.286z"/>
			</g>
			<path id="XMLID_18_" style="fill:#112129;" d="M281.595,466.547c-0.295-0.116-0.805-0.309-1.382-0.237
				c-0.551,0.069-0.844,0.341-0.844,1.007v0.866h2.228v1.717h-2.228v5.455h-1.932v-5.455h-1.34v-1.717h1.34v-0.888
				c0-1.68,0.896-2.783,2.568-2.783c0.643,0,1.157,0.122,1.59,0.308L281.595,466.547z"/>
			<path id="XMLID_16_" style="fill:#112129;" d="M286.298,469.879c-0.177-0.03-0.358-0.046-0.526-0.046
				c-0.896,0-1.51,0.548-1.51,1.614v3.908h-1.932v-7.172h1.873v0.785c0.451-0.673,1.14-0.977,2.021-0.977
				c0.414,0,0.848,0.128,1.094,0.337L286.298,469.879z"/>
			<path id="XMLID_13_" style="fill:#112129;" d="M293.965,471.757c0,0.222-0.015,0.489-0.037,0.651h-5.085
				c0.207,1.036,0.933,1.488,1.843,1.488c0.622,0,1.295-0.252,1.813-0.688l1.132,1.243c-0.814,0.748-1.85,1.088-3.057,1.088
				c-2.198,0-3.723-1.495-3.723-3.753c0-2.258,1.48-3.797,3.627-3.797C292.544,467.99,293.958,469.522,293.965,471.757z
				 M288.851,471.091h3.175c-0.177-0.918-0.733-1.436-1.562-1.436C289.554,469.655,289.021,470.203,288.851,471.091z"/>
			<path id="XMLID_10_" style="fill:#112129;" d="M301.618,471.757c0,0.222-0.015,0.489-0.037,0.651h-5.085
				c0.207,1.036,0.933,1.488,1.843,1.488c0.622,0,1.295-0.252,1.813-0.688l1.132,1.243c-0.814,0.748-1.85,1.088-3.057,1.088
				c-2.198,0-3.723-1.495-3.723-3.753c0-2.258,1.48-3.797,3.627-3.797C300.197,467.99,301.611,469.522,301.618,471.757z
				 M296.504,471.091h3.175c-0.178-0.918-0.733-1.436-1.562-1.436C297.207,469.655,296.674,470.203,296.504,471.091z"/>
			<path id="XMLID_7_" style="fill:#112129;" d="M309.964,471.764c0,2.154-1.495,3.775-3.471,3.775
				c-0.962,0-1.643-0.378-2.109-0.933v3.708h-1.924v-10.133h1.887v0.792c0.466-0.585,1.155-0.984,2.139-0.984
				C308.469,467.99,309.964,469.61,309.964,471.764z M304.287,471.764c0,1.132,0.747,1.976,1.843,1.976
				c1.14,0,1.85-0.881,1.85-1.976c0-1.095-0.71-1.976-1.85-1.976C305.035,469.788,304.287,470.632,304.287,471.764z"/>
			<path id="XMLID_4_" style="fill:#112129;" d="M313.068,465.836c0,0.696-0.54,1.229-1.236,1.229c-0.696,0-1.229-0.533-1.229-1.229
				c0-0.696,0.533-1.243,1.229-1.243C312.527,464.592,313.068,465.14,313.068,465.836z M312.809,475.354h-1.932v-7.172h1.932
				V475.354z"/>
			<path id="XMLID_2_" style="fill:#112129;" d="M316.032,470.736l2.701-2.554h2.368l-3.479,3.375l3.501,3.797h-2.376l-2.716-2.901
				v2.901H314.1v-10.658h1.932V470.736z"/>
		</g>
		<g>
			<path style="fill:#112129;" d="M184.412,475.289v-1.055c-0.527,0.718-1.391,1.23-2.387,1.23c-1.846,0-3.149-1.406-3.149-3.706
				c0-2.256,1.289-3.721,3.149-3.721c0.952,0,1.816,0.469,2.387,1.245v-3.765h1.099v9.77H184.412z M184.412,473.37v-3.208
				c-0.395-0.615-1.245-1.143-2.124-1.143c-1.421,0-2.27,1.172-2.27,2.739c0,1.567,0.85,2.724,2.27,2.724
				C183.168,474.483,184.017,473.986,184.412,473.37z"/>
			<path style="fill:#112129;" d="M186.932,471.744c0-2.051,1.465-3.706,3.486-3.706c2.139,0,3.398,1.67,3.398,3.794v0.279h-5.727
				c0.088,1.333,1.025,2.446,2.549,2.446c0.805,0,1.626-0.322,2.182-0.894l0.527,0.718c-0.703,0.703-1.655,1.084-2.812,1.084
				C188.44,475.465,186.932,473.956,186.932,471.744z M190.403,468.947c-1.509,0-2.256,1.274-2.314,2.358h4.643
				C192.718,470.25,192.015,468.947,190.403,468.947z"/>
			<path style="fill:#112129;" d="M194.607,474.351l0.571-0.791c0.469,0.542,1.362,1.011,2.329,1.011c1.084,0,1.67-0.513,1.67-1.216
				c0-1.714-4.38-0.659-4.38-3.281c0-1.098,0.952-2.036,2.636-2.036c1.201,0,2.051,0.454,2.622,1.026l-0.513,0.762
				c-0.424-0.513-1.201-0.894-2.109-0.894c-0.967,0-1.567,0.483-1.567,1.113c0,1.552,4.38,0.527,4.38,3.281
				c0,1.187-0.952,2.138-2.783,2.138C196.306,475.465,195.325,475.113,194.607,474.351z"/>
			<path style="fill:#112129;" d="M201.477,466.471c0-0.41,0.337-0.747,0.732-0.747c0.41,0,0.747,0.337,0.747,0.747
				c0,0.41-0.337,0.732-0.747,0.732C201.814,467.203,201.477,466.881,201.477,466.471z M201.667,475.289v-7.075h1.099v7.075H201.667
				z"/>
			<path style="fill:#112129;" d="M204.582,477.105l0.556-0.82c0.586,0.703,1.289,0.967,2.3,0.967c1.172,0,2.27-0.571,2.27-2.124
				v-1.011c-0.513,0.718-1.377,1.26-2.373,1.26c-1.845,0-3.149-1.377-3.149-3.662c0-2.27,1.289-3.677,3.149-3.677
				c0.952,0,1.802,0.469,2.373,1.245v-1.069h1.098v6.87c0,2.344-1.641,3.076-3.369,3.076
				C206.237,478.16,205.417,477.926,204.582,477.105z M209.709,473.253v-3.091c-0.381-0.615-1.23-1.143-2.109-1.143
				c-1.421,0-2.27,1.128-2.27,2.695c0,1.553,0.849,2.695,2.27,2.695C208.478,474.41,209.328,473.868,209.709,473.253z"/>
			<path style="fill:#112129;" d="M217.413,475.289v-4.629c0-1.245-0.63-1.641-1.582-1.641c-0.865,0-1.685,0.527-2.095,1.099v5.17
				h-1.099v-7.075h1.099v1.025c0.498-0.586,1.465-1.201,2.519-1.201c1.48,0,2.256,0.747,2.256,2.285v4.966H217.413z"/>
			<path style="fill:#112129;" d="M219.932,471.744c0-2.051,1.465-3.706,3.486-3.706c2.139,0,3.398,1.67,3.398,3.794v0.279h-5.727
				c0.088,1.333,1.025,2.446,2.549,2.446c0.806,0,1.626-0.322,2.183-0.894l0.527,0.718c-0.703,0.703-1.655,1.084-2.812,1.084
				C221.441,475.465,219.932,473.956,219.932,471.744z M223.404,468.947c-1.509,0-2.256,1.274-2.314,2.358h4.643
				C225.718,470.25,225.015,468.947,223.404,468.947z"/>
			<path style="fill:#112129;" d="M233.35,475.289v-1.055c-0.527,0.718-1.392,1.23-2.388,1.23c-1.846,0-3.149-1.406-3.149-3.706
				c0-2.256,1.289-3.721,3.149-3.721c0.952,0,1.817,0.469,2.388,1.245v-3.765h1.098v9.77H233.35z M233.35,473.37v-3.208
				c-0.396-0.615-1.245-1.143-2.124-1.143c-1.421,0-2.27,1.172-2.27,2.739c0,1.567,0.849,2.724,2.27,2.724
				C232.105,474.483,232.954,473.986,233.35,473.37z"/>
			<path style="fill:#112129;" d="M239.692,475.289v-9.77h1.098v3.765c0.572-0.776,1.421-1.245,2.388-1.245
				c1.845,0,3.149,1.465,3.149,3.721c0,2.299-1.304,3.706-3.149,3.706c-0.996,0-1.86-0.513-2.388-1.23v1.055H239.692z
				 M242.9,474.483c1.436,0,2.285-1.157,2.285-2.724c0-1.568-0.85-2.739-2.285-2.739c-0.864,0-1.728,0.527-2.109,1.143v3.208
				C241.171,473.986,242.036,474.483,242.9,474.483z"/>
			<path style="fill:#112129;" d="M247.528,477.061c0.161,0.073,0.425,0.117,0.601,0.117c0.483,0,0.805-0.161,1.055-0.747
				l0.469-1.069l-2.959-7.148h1.187l2.358,5.8l2.344-5.8h1.201l-3.545,8.51c-0.425,1.025-1.143,1.421-2.08,1.435
				c-0.234,0-0.601-0.044-0.806-0.103L247.528,477.061z"/>
		</g>
	</g>
</g>
</svg>
