<svg xmlns="http://www.w3.org/2000/svg" version="1.1" xmlns:xlink="http://www.w3.org/1999/xlink" xmlns:svgjs="http://svgjs.dev/svgjs" width="1440" height="560" preserveAspectRatio="none" viewBox="0 0 1440 560"><g mask="url(&quot;#SvgjsMask1077&quot;)" fill="none"><rect width="1440" height="560" x="0" y="0" fill="rgba(173, 221, 227, 1)"></rect><path d="M0,544.358C99.278,529.672,183.666,469.042,258.361,402.017C324.562,342.613,362.95,263.502,402.034,183.603C442.188,101.516,500.852,20.296,489.437,-70.37C477.973,-161.429,400.931,-225.978,341.649,-296.041C281.648,-366.954,231.42,-458.633,141.431,-481.669C51.918,-504.583,-36.251,-449.686,-121.756,-414.664C-199.093,-382.987,-263.437,-335.432,-332.06,-287.731C-424.757,-223.296,-583.757,-197.887,-595.186,-85.575C-606.798,28.532,-429.743,70.224,-378.952,173.061C-330.686,270.785,-390.497,410.204,-312.644,486.484C-235.376,562.192,-107.012,560.188,0,544.358" fill="#8ccfd8"></path><path d="M1440 1149.738C1548.11 1139.112 1622.002 1043.59 1717.446 991.7139999999999 1822.6390000000001 934.539 1993.297 943.354 2029.615 829.268 2067.401 710.5699999999999 1913.749 615.802 1874.777 497.488 1845.098 407.38599999999997 1877.537 304.245 1829.692 222.32999999999998 1777.208 132.47199999999998 1699.321 45.291000000000054 1597.665 23.04200000000003 1497.108 1.0330000000000155 1401.754 67.12 1307.278 107.98899999999998 1223.809 144.09699999999998 1151.216 191.83999999999997 1079.1680000000001 247.337 989.318 316.546 851.617 360.837 833.643 472.819 815.723 584.465 945.492 661.622 996.472 762.553 1044.769 858.173 1044.44 979.481 1125.141 1049.93 1209.798 1123.833 1328.163 1160.73 1440 1149.738" fill="#ceebee"></path></g><defs><mask id="SvgjsMask1077"><rect width="1440" height="560" fill="#ffffff"></rect></mask></defs></svg>